<?xml version="1.0" encoding="UTF-8" standalone="no"?>
<!-- Created with Inkscape (http://www.inkscape.org/) -->

<svg
   width="150.15134mm"
   height="132.62755mm"
   viewBox="0 0 150.15134 132.62755"
   version="1.1"
   id="svg237"
   xml:space="preserve"
   inkscape:version="1.2.2 (b0a84865, 2022-12-01)"
   sodipodi:docname="mupp.svg"
   xmlns:inkscape="http://www.inkscape.org/namespaces/inkscape"
   xmlns:sodipodi="http://sodipodi.sourceforge.net/DTD/sodipodi-0.dtd"
   xmlns="http://www.w3.org/2000/svg"
   xmlns:svg="http://www.w3.org/2000/svg"><sodipodi:namedview
     id="namedview239"
     pagecolor="#ffffff"
     bordercolor="#000000"
     borderopacity="0.25"
     inkscape:showpageshadow="2"
     inkscape:pageopacity="0.0"
     inkscape:pagecheckerboard="true"
     inkscape:deskcolor="#d1d1d1"
     inkscape:document-units="mm"
     showgrid="false"
     inkscape:zoom="0.914906"
     inkscape:cx="301.67034"
     inkscape:cy="377.63442"
     inkscape:window-width="1390"
     inkscape:window-height="1205"
     inkscape:window-x="865"
     inkscape:window-y="354"
     inkscape:window-maximized="0"
     inkscape:current-layer="layer1" /><defs
     id="defs234"><filter
       inkscape:label="Monochrome Transparency"
       inkscape:menu="Fill and Transparency"
       inkscape:menu-tooltip="Convert to a colorizable transparent positive or negative"
       style="color-interpolation-filters:sRGB;"
       id="filter220"
       x="0"
       y="0"
       width="1"
       height="1"><feColorMatrix
         type="luminanceToAlpha"
         result="fbSourceGraphic"
         id="feColorMatrix212" /><feFlood
         flood-color="rgb(134,39,24)"
         result="result1"
         flood-opacity="1"
         id="feFlood214" /><feComposite
         operator="out"
         in2="fbSourceGraphic"
         result="result2"
         id="feComposite216" /><feComposite
         operator="in"
         in2="SourceGraphic"
         id="feComposite218" /></filter></defs><g
     inkscape:label="Layer 1"
     inkscape:groupmode="layer"
     id="layer1"
     transform="translate(-30.514849,-48.441229)"><path
       style="fill:#33383a;stroke:none;stroke-width:0.264583;filter:url(#filter220)"
       d="m 103.28755,61.212525 v 0.26458 l 1.05833,2.11667 c -3.22633,-0.97824 -4.16957,0.35182 -4.23333,3.43958 h -1.058331 c 0.27675,1.65894 1.800491,1.32292 3.175001,1.32292 h 9.78958 l -1.05833,-5.55625 -3.96875,0.79375 c 0.82338,-2.88679 0.0648,-5.00623 0.27913,-7.9375 0.14711,-2.01181 1.1012,-3.67477 0.74004,-5.80551 -0.27067,-1.59647 -3.36391,-1.83489 -4.29921,-0.72496 -1.18428,1.40573 -0.18892,4.00116 0.22542,5.47214 0.54637,1.93968 0.27887,4.84283 -0.64955,6.61458 m 2.11667,74.347915 h 0.26458 l 5.73326,-17.72708 1.85367,-5.29167 0.35057,-14.816671 V 71.266691 h -11.37708 l -4.073791,0.27199 -0.42413,3.961338 v 11.64167 17.197921 l 0.16378,9.26042 7.509141,21.96041 m 19.05,-61.647921 c -1.76557,0.65141 -0.52917,5.28214 -0.52917,7.14375 0,3.39699 -0.75274,6.68761 -0.79269,10.05417 -0.0103,0.8718 -0.35243,2.81781 0.42307,3.43217 0.86201,0.68289 3.02365,0.272 4.07378,0.272 0,-4.87998 -2.1164,-9.18157 -2.11666,-14.02292 -2.7e-4,-2.34818 -0.34131,-4.03357 1.32291,-5.82083 v -0.26459 l -1.85208,-0.79375 0.52917,-2.381248 c -1.45442,-0.0236 -1.63142,1.27027 -1.05833,2.381248 m -38.629159,20.37292 0.52917,1.85208 h -5.82084 c -1.29884,6.325931 -0.52916,13.372841 -0.52916,19.843761 v 35.98333 14.55209 c 0,1.62321 -0.56357,4.53151 0.15954,6.00127 0.38285,0.77788 1.50627,0.61172 2.22171,0.61331 2.04126,0.004 4.3852,0.31618 6.35,-0.26458 l -0.26459,-8.73125 c 4.92125,-0.72682 9.152988,-3.80233 14.287489,-3.43959 l -0.22807,3.59357 -4.005261,3.02102 v 0.26458 l 1.05833,0.52917 -0.52916,12.96458 h 0.26458 v -4.49792 h 0.26458 l 0.27199,4.07379 5.019681,0.42413 0.81756,-1.34408 1.86611,1.25994 4.46008,0.0841 -0.42413,-5.00856 -2.48629,-0.001 -2.00104,0.29421 -1.70312,2.06958 v -0.26459 l 0.79375,-0.79375 -0.52917,0.26459 v -0.26459 l 0.52917,-1.5875 -1.85209,3.175 1.05834,-2.91041 c -0.63395,-0.15214 -0.65802,-0.12568 -0.79375,0.52916 -1.55681,-1.11971 -3.56897,-0.99457 -5.291671,-0.26458 l 1.058331,-1.85208 -0.26458,-1.05834 2.64583,-1.32291 -2.11666,1.85208 1.5875,-0.26458 c 0.94985,1.0869 5.89147,0.82523 7.40806,0.8374 0.65273,0.005 1.40759,-0.28046 1.69201,-0.9099 0.59558,-1.31842 0.31618,-6.36799 -0.37597,-7.54115 -0.44635,-0.75645 -1.34196,-1.152 -1.84494,-1.91135 l -1.05833,0.26458 -0.52917,-0.79375 v -0.52917 l 0.26459,-0.26458 1.05833,0.52916 0.79375,-1.85208 -2.38125,-0.79375 v -0.52917 l 3.43958,-0.70564 10.84792,4.14523 -1.05833,-3.96875 c 0.89005,-0.0934 1.64994,-0.1106 1.85208,-1.05834 l -1.32292,0.52917 0.79375,-4.49792 h 0.79375 v 5.55625 l -1.5875,0.79375 0.79375,0.79375 h 0.26459 l 0.26458,-1.05833 h 0.26458 l 0.26459,12.17084 h 8.20208 c 0,-19.42942 0.26458,-38.78237 0.26458,-58.20834 v -13.75836 c 0,-1.054361 0.52255,-4.043891 -0.6133,-4.602951 -1.74493,-0.85858 -5.38745,-0.17278 -7.3242,-0.15928 -0.75882,0.005 -1.58035,-0.0484 -2.09391,0.61304 -0.92551,1.19142 -1.05701,3.02524 -1.53379,4.413781 -1.07289,3.12526 -2.07354,6.11928 -3.10885,9.26041 -1.39436,4.23149 -3.43959,8.2214 -4.88421,12.43542 -1.98596,5.792 -3.6875,11.84222 -6.10632,17.4625 l -11.960219,-32.80833 -2.74796,-7.937501 -1.30175,-2.90301 -3.04006,-0.53658 v -2.11666 l 1.85208,-0.26459 c -0.0228,-2.73367 -1.19036,-5.24642 -1.3126,-7.9375 -0.0836,-1.8452 -0.0103,-3.70919 -0.0103,-5.55625 0,-1.92325 1.07659,-4.25423 0.68554,-6.08039 -0.26538,-1.23904 -1.96797,-1.898118 -2.56196,-0.49503 -0.63421,1.49833 0.38629,3.47953 0.52599,4.98792 0.21564,2.32807 -0.40931,4.86304 -0.83529,7.14375 -0.39237,2.10079 -1.82747,4.99878 -1.6129,7.10565 0.10531,1.03585 1.66926,1.2237 2.47571,1.36102 m -50.00625,16.404171 c 0.968534,-0.71279 2.735474,-2.17673 2.911025,-3.43959 0.175286,-1.26074 -1.521936,-3.29776 -1.998266,-4.49791 -1.609142,-4.054741 -3.468422,-9.413611 -1.037299,-13.489781 2.403026,-4.02882 8.915136,-2.59742 12.559956,-1.55417 6.357673,1.82007 12.440443,4.20397 18.256254,7.37129 3.70469,2.01745 7.59724,5.160171 11.64166,6.349741 0,-1.01521 0.25903,-2.475181 -0.27199,-3.384021 -1.38377,-2.36855 -6.57833,-4.46432 -8.98842,-5.67743 -7.879825,-3.96558 -16.520852,-8.38914 -25.400004,-9.21464 -4.531227,-0.42122 -9.627261,0.36935 -11.769063,5.04692 -3.498797,7.64117 1.45497,15.603541 4.096147,22.489591 m 97.631239,-8.99584 c 10.06528,-4.704821 18.78912,-10.845001 29.63333,-13.968941 3.7846,-1.09008 9.84911,-2.5146 12.39732,1.53458 3.86609,6.14363 -2.49238,12.639421 -3.48933,18.519521 -0.30639,1.80789 2.09735,2.35558 1.93993,4.23359 l -3.43959,-0.52916 c -0.89085,-1.26074 -3.74755,-1.1184 -5.02708,-0.52917 l 0.52917,1.05833 -1.85209,0.26459 v 0.26458 l 0.52917,1.32292 -1.05833,-0.26458 -0.26459,0.26458 c 0.21167,0.91122 0.84588,3.10568 1.85209,1.5875 l 1.05833,0.79375 0.26458,-1.32292 h 0.52917 c -1.30678,5.56128 -8.50212,8.96303 -10.84792,14.02292 -2.75669,-1.2319 -5.21731,-4.52226 -7.40859,-6.61458 -4.16455,-3.97643 -9.44378,-8.6106 -14.81641,-10.84792 -0.33337,1.12818 -0.60854,3.10594 0.007,4.18438 0.74216,1.29937 2.8194,2.08571 3.96134,3.03477 3.34672,2.78236 6.55982,5.66394 9.78562,8.58044 1.04113,0.94113 4.23016,3.33666 4.22275,4.83791 -0.008,1.74466 -4.01347,4.42754 -5.27738,5.49116 -2.8321,2.3831 -5.70415,4.69424 -8.73099,6.83207 -1.18612,0.83767 -3.2078,1.55311 -3.96134,2.83766 -0.65802,1.12157 -0.27199,3.15463 -0.27199,4.41828 5.43269,-2.89137 10.41109,-6.98209 15.08125,-10.9609 1.60496,-1.36736 4.0677,-4.84663 6.08145,-5.3885 1.15464,-0.31089 4.77017,3.82455 4.73921,4.97628 -0.091,3.35942 -3.16309,6.8027 -3.94149,10.0502 -2.64451,-0.62971 -5.8846,-0.1995 -7.79013,1.93834 -2.57783,2.89189 -1.06601,7.92612 2.23388,9.43874 -2.25372,4.0431 -5.67902,7.60148 -8.3701,11.37709 -1.6637,2.33415 -3.40069,5.41232 -5.9174,6.87917 0,-1.43669 0.5035,-4.0349 -0.644,-5.1189 -0.93318,-0.88212 -2.41353,-0.70194 -3.58934,-0.70194 h -8.73124 c -1.12925,0 -2.72098,-0.28257 -3.58934,0.61331 -1.27027,1.30995 -0.644,4.57702 -0.644,6.26586 h 11.90625 l 5.55625,-0.19632 3.96875,-3.50785 -1.5875,3.70417 h 0.26458 l 2.79109,-5.21626 6.67015,-7.74832 3.50335,-5.29167 c 3.92403,0.41486 8.79924,-2.30849 8.21161,-6.87917 -0.22834,-1.77721 -2.1762,-3.36285 -2.04232,-5.02814 0.26828,-3.33666 2.73764,-6.282 3.35571,-9.52394 h 0.26458 c 1.01203,2.27092 3.09166,4.23042 4.72149,6.08541 4.48045,5.09905 9.22258,12.1973 10.20657,19.05001 0.58102,4.04706 -0.50853,8.34204 -4.87389,9.58082 -5.55863,1.57771 -13.11355,-2.42358 -18.25625,-4.1611 -3.04747,-1.02976 -5.85444,-3.43297 -7.40834,0.66569 4.46617,1.73276 8.88471,3.60945 13.49375,4.95433 2.81147,0.82047 5.82163,1.73619 8.73125,1.94839 1.76636,0.12885 3.55071,0.20002 5.29167,-0.26882 6.84768,-1.84467 7.68535,-9.13183 6.63469,-15.10056 -2.08941,-11.87239 -12.30498,-20.0369 -18.80552,-29.36876 l 1.5875,1.05834 c 1.21364,-5.29352 3.05144,-11.16965 5.23372,-16.13959 1.2401,-2.82416 3.32899,-5.50942 5.08503,-1.32291 l -2.64584,3.175 1.05834,0.79375 c 2.05978,-2.54477 6.64051,-3.18109 6.28967,-7.40834 -0.13732,-1.65338 -2.06454,-2.91333 -1.90817,-4.49792 0.12488,-1.26312 1.02155,-2.49766 1.39858,-3.70416 2.02486,-6.48124 6.37329,-15.686621 -0.008,-21.354791 -2.86094,-2.54106 -6.73868,-2.34394 -10.27007,-1.94178 -8.45899,0.96335 -18.2081,5.34565 -25.4,9.74937 -1.9812,1.21312 -7.04427,3.05223 -8.04254,5.18372 -0.42465,0.90725 -0.15954,2.353201 -0.15954,3.336391 m -7.14375,-14.022911 -0.26459,0.26458 0.26459,-0.26458 m 51.59375,6.08541 v 1.05834 H 177.635 l 0.26459,-1.05834 m 0,1.85209 v 0.79375 H 177.635 l 0.26459,-0.79375 m -1.32292,3.43958 -0.26458,1.058331 h -0.26459 l 0.52917,-1.058331 m -0.52917,1.322921 -2.64583,6.08541 h -0.26458 l 2.91041,-6.08541 m -3.43958,7.67291 -0.26458,0.26459 0.26458,-0.26459 m -136.260403,7.14376 v 0.26458 l 1.852084,-1.32292 c 0.204046,1.97909 1.521989,3.2139 3.175,4.20846 0.922602,0.5551 2.469488,0.68739 2.645833,1.87696 2.475494,-0.69744 5.052218,-1.97353 5.708914,-4.7625 0.912019,-3.87297 -3.645244,-7.80971 -7.296414,-6.66644 -3.261175,1.02129 -4.164092,4.09098 -6.085417,6.40186 m 134.408803,-4.49792 v 0.26458 l 1.32291,-0.26458 h -1.32291 m -133.085405,0.79375 -0.264583,0.52916 0.264583,-0.52916 m 6.614583,10.31875 c 1.015656,3.57082 2.562675,6.98579 3.498189,10.58333 0.287628,1.10623 1.114795,2.55588 0.748215,3.70417 -1.008751,3.15965 -5.278543,6.30608 -7.261357,8.99583 -3.36214,4.56116 -7.331578,9.92082 -9.162627,15.34584 -0.938926,2.78183 -0.830262,5.35649 -1.20388,8.20208 -0.638016,4.85934 2.704465,10.7905 8.089794,11.10113 2.022739,0.11668 4.084822,0.0437 6.085416,-0.25427 3.136503,-0.46699 6.58495,-1.41922 9.525,-2.60879 4.144962,-1.67719 8.738129,-2.74849 12.435413,-5.32765 -1.43615,-5.20885 -5.600432,-8.8781 -7.587982,-13.75834 -0.570177,-1.40017 1.167341,-3.03159 1.369219,-4.49791 0.500062,-3.63035 -2.697163,-6.98262 -6.21665,-7.14375 -0.313796,-2.37093 -2.4892,-5.94916 -2.027767,-8.20209 0.249238,-1.21602 2.267479,-3.44461 3.615267,-2.74637 1.987285,1.03002 3.646752,3.3438 5.291931,4.8432 4.412982,4.02219 10.540732,10.0449 16.403902,11.66151 0,-1.16258 0.31353,-2.87735 -0.27199,-3.92272 -0.8173,-1.4597 -2.9345,-2.4331 -4.22593,-3.43667 -3.42397,-2.66038 -6.95087,-5.14032 -10.010243,-8.23092 -1.017058,-1.02738 -4.718579,-2.99985 -4.715933,-4.51803 0.0024,-1.55019 3.656542,-4.23783 4.723871,-5.22049 3.168915,-2.91756 6.367195,-5.68219 9.737725,-8.36163 1.09802,-0.87312 3.44382,-1.67693 4.22592,-2.71304 0.64321,-0.85195 0.272,-2.794 0.272,-3.81317 l -5.55625,3.21204 -10.05417,8.16901 -4.223015,4.00976 -1.875631,1.64015 -1.861608,-1.42081 -4.550569,-4.86331 -5.21626,-0.42809 m -6.879166,-3.43958 1.322916,1.5875 -1.322916,-1.5875 m 1.5875,1.5875 v 0.26458 l 2.645833,0.79375 v -0.26458 l -2.645833,-0.79375 m 3.175,0.52916 v 0.26459 h 1.322916 l -1.322916,-0.26459 m 123.031238,1.05834 -0.26459,1.05833 h -0.26458 l 0.52917,-1.05833 m -42.33333,0.26458 v 31.22083 l -1.5875,-0.52916 c -0.45826,0.70617 -0.77841,0.71702 -1.5875,0.52916 l -3.175,2.91042 1.5875,0.26458 -0.26459,0.79375 c 1.55364,-0.0664 2.90936,-0.50482 3.43959,1.32292 -1.76134,0.3556 -5.64145,-0.82709 -5.29167,-3.175 -1.83938,-0.67178 -3.76767,-1.28455 -3.78963,-3.70417 -0.0108,-1.20491 0.9107,-2.37013 1.35599,-3.43958 0.79058,-1.89706 1.28667,-3.91028 2.05026,-5.82083 1.8968,-4.74636 3.23426,-9.74646 5.02338,-14.55209 0.70352,-1.88992 0.95673,-4.2164 2.23917,-5.82083 m -34.131239,0.26458 6.069537,17.72709 4.778361,14.02291 -5.820818,1.5875 h -0.26458 l -5.02709,-3.43958 v -20.90208 l 0.26459,-8.99584 m 75.935399,0.79375 -3.43958,11.90625 -2.9046,-3.15118 1.82642,-2.42888 4.51776,-6.32619 m -115.887485,3.70417 c 1.064418,0.9697 4.172743,3.18452 3.989652,4.7625 -0.100277,0.86201 -1.127125,1.69439 -1.608402,2.38125 h -0.264604 l -2.116666,-7.14375 m -1.058334,1.85208 -0.264583,0.26459 0.264583,-0.26459 m 0.176398,0.97023 -0.08821,0.17621 0.08821,-0.17621 m 0.352769,0.61727 1.322917,5.82084 c -1.28614,-0.97473 -1.937914,-4.35187 -1.322917,-5.82084 m 2.02856,8.90773 -0.08837,0.17621 0.08837,-0.17621 m 0.35269,0.61727 2.116667,7.14375 c -4.537922,1.78091 -5.33236,7.87559 -1.322653,10.64843 1.926432,1.33217 3.696494,0.94959 5.820569,0.46407 l 6.61458,11.90626 c -5.820036,3.039 -13.334996,5.62345 -19.843746,6.4254 -3.205771,0.39476 -6.373098,0.2249 -8.358267,-2.72521 -2.190115,-3.25464 -1.068467,-7.98644 0.207222,-11.37311 3.15124,-8.36613 8.555143,-16.08349 14.765628,-22.48959 m 2.910416,8.73125 0.529167,3.96875 -0.79375,0.26459 0.264583,1.05833 -0.793749,-0.26458 0.793749,-5.02709 m 57.326466,3.35148 -0.0884,0.17621 0.0884,-0.17621 m -0.97023,1.14644 v 0.52917 h -8.20208 c 0.35507,-2.22039 6.47568,-1.26074 8.20208,-0.52917 m 41.27527,0.40084 c 2.9538,-0.87259 3.284,3.36868 0.7829,4.18889 -3.40016,1.11522 -3.84069,-3.28586 -0.7829,-4.18889 m -96.573172,0.12833 -0.264584,0.26458 0.264584,-0.26458 m 58.208322,3.70416 c -1.39727,-0.68183 -4.15131,0.46197 -5.55625,1.05834 l 0.26458,-0.79375 -0.79375,0.26458 0.52917,-0.79375 c -0.97367,-0.39132 -1.05886,-0.86995 -0.79375,-1.85208 l -1.5875,0.26458 v 1.5875 l -3.175,-1.85208 v -0.26459 c 3.02075,-0.71913 7.42923,-0.75353 10.31875,0.26459 v -0.26459 l -1.32292,-1.32291 c 1.66238,0.47784 2.60218,2.04073 2.11667,3.70416 m -8.73125,-2.38125 -0.26458,0.79375 h 0.79375 l -0.52917,-0.79375 m 4.49792,0 v 0.26459 h 0.79375 l -0.79375,-0.26459 m -15.610409,5.29167 -4.49792,2.11667 v -7.14375 c 2.51963,0.82867 5.04587,2.31404 4.49792,5.02708 m 9.260409,-1.5875 -4.497921,-1.5875 v -0.26458 l 0.52917,-0.52917 -0.79375,-0.26458 c 2.4458,-0.98743 4.670681,-0.24157 4.762501,2.64583 m 4.7625,-3.175 -0.26459,1.05833 1.05834,-1.05833 h -0.79375 m -10.054171,0.26458 0.26458,1.05834 -1.85207,-1.05834 h 1.58749 m 23.283331,0 v 0.79375 l -0.52916,-0.79375 h 0.52916 m 0.52917,0.26459 -0.26458,0.26458 0.26458,-0.26458 m -6.35,1.5875 -0.79375,-0.52917 0.79375,0.52917 m -25.488099,0.88185 0.17622,0.0884 -0.17622,-0.0884 m 0.88186,-0.0881 -0.52917,0.79375 0.52917,-0.79375 m 16.933319,0.0881 c 0.20453,0 0.0423,0.13177 -0.0881,0.0884 l 0.0881,-0.0884 m 6.61459,-0.0881 1.05833,0.79375 v 0.26458 c -0.82921,0.0333 -1.36366,-0.16245 -1.05833,-1.05833 m 3.70416,0 v 0.52916 h -0.52916 v -0.52916 h 0.52916 m -26.193739,0.26458 -0.26458,0.79375 0.26458,-0.79375 m 6.879158,0.52917 -3.174988,1.05833 0.264577,-0.79375 0.529171,0.52917 2.38124,-0.79375 m -8.202068,0.52916 -0.26459,0.52917 h 0.52917 l -0.26458,-0.52917 m 26.987489,0.52917 -1.32292,-0.26458 1.32292,0.26458 m 3.70416,2.11667 -3.175,-2.38125 c 1.40732,-0.0503 2.76516,1.04008 3.175,2.38125 m 0,-2.64584 -0.26458,0.26459 0.26458,-0.26459 m -17.19791,0.52917 -0.26459,0.26458 0.26459,-0.26458 m -35.718739,8.20209 c 0.44397,1.29963 0.99298,2.74187 2.38125,3.175 l 0.26458,1.32291 h 0.26458 l -0.26458,-1.32291 2.39554,-1.75604 6.33571,-3.27105 v -0.52916 l -1.5875,-2.11667 -9.78958,4.49792 m 74.347899,2.64583 -1.5875,2.91042 h 0.26458 l 3.70417,-5.02709 v -0.52916 c -2.41194,-0.99087 -4.7789,-2.13837 -7.14375,-3.23692 -0.7239,-0.33628 -1.99602,-1.26762 -2.82628,-1.04219 -1.134,0.30824 -0.62944,2.68155 0,3.22977 1.92485,1.6764 5.22473,2.77812 7.58878,3.69517 m -39.6875,-4.23333 -1.5875,2.11666 -0.529161,-1.05833 v -0.26458 l 2.116661,-0.79375 m 8.20209,0.26458 -0.26459,1.85208 h -0.26458 l 0.52917,-1.85208 m -5.82084,0.52917 -0.26458,0.26458 0.26458,-0.26458 m 0.79375,0.79375 v 0.52916 l -4.49791,3.43959 0.26458,-1.85209 c 1.83435,0 1.49648,-3.26893 4.23333,-2.11666 m 3.96875,-0.26459 0.26459,2.11667 0.26458,-1.05833 h 0.26458 c 0.14076,1.80181 0.3945,3.538 -0.79375,5.02708 l -1.85208,-2.38125 2.11667,-1.32292 c -1.48643,-0.49556 -2.51222,-0.61701 -2.64584,-2.38125 h 2.38125 m -2.91041,0.52917 0.26458,1.5875 c -0.9869,-0.2114 -0.89456,-0.95753 -0.26458,-1.5875 m -5.02709,0.79375 -1.05833,2.11667 c -0.144461,-1.05119 0.11986,-1.61132 1.05833,-2.11667 m 3.96875,1.32292 1.05834,0.79375 -0.26459,1.05833 h -0.52916 l -0.26459,-1.85208 m 1.32292,0 -0.26458,0.26458 0.26458,-0.26458 m 0.79375,0.0881 c 0.20452,0 0.0423,0.13176 -0.0881,0.0884 l 0.0881,-0.0884 m -2.91042,0.97023 v 1.05833 l -1.32291,-1.05833 h 1.32291 m -3.96875,0.52917 -0.529161,0.52916 v -0.52916 h 0.529161 m 8.73125,0.26458 v 0.79375 h 0.26459 l -0.26459,-0.79375 m 32.27917,0 -0.52917,1.32292 h 0.26458 l 0.26459,-1.32292 m -69.056239,5.29167 c 0.36777,-1.72429 -1.04934,-4.57835 -3.17368,-4.41802 -1.80578,0.13626 -1.19538,1.77483 -0.26061,2.48788 0.42624,0.32517 0.86836,0.64267 1.31762,0.9353 0.67204,0.43789 1.36287,0.73343 2.11667,0.99484 m 30.603549,-4.32144 -0.0884,0.17621 0.0884,-0.17621 m -0.44106,0.0881 -0.26458,0.26459 0.26458,-0.26459 m -27.781239,7.67292 h 17.99167 c 0,-1.44912 0.65801,-5.10805 -0.42413,-6.19046 -0.79666,-0.79639 -2.78262,-0.42412 -3.80921,-0.42412 h -8.99583 c -1.08453,0 -2.70325,-0.29422 -3.61341,0.42412 -1.65497,1.30652 -1.14909,4.3524 -1.14909,6.19046 m 34.924989,-5.82083 v 0.26458 h 0.79375 l -0.79375,-0.26458 m 2.11667,0 0.26458,0.26458 -0.26458,-0.26458 m -77.258325,1.32291 -0.264583,0.26459 0.264583,-0.26459 m 125.147905,1.32292 0.52916,0.52917 v -0.52917 z"
       id="path277" /></g></svg>
