<?xml version="1.0" encoding="UTF-8" standalone="no"?>
<!-- Created with Inkscape (http://www.inkscape.org/) -->

<svg
   version="1.1"
   id="svg1"
   width="1365.3333"
   height="1365.3333"
   viewBox="0 0 1365.3333 1365.3333"
   sodipodi:docname="hookbangsplat_logo.png"
   xmlns:inkscape="http://www.inkscape.org/namespaces/inkscape"
   xmlns:sodipodi="http://sodipodi.sourceforge.net/DTD/sodipodi-0.dtd"
   xmlns="http://www.w3.org/2000/svg"
   xmlns:svg="http://www.w3.org/2000/svg">
  <defs
     id="defs1" />
  <sodipodi:namedview
     id="namedview1"
     pagecolor="#ffffff"
     bordercolor="#000000"
     borderopacity="0.25"
     inkscape:showpageshadow="2"
     inkscape:pageopacity="0.0"
     inkscape:pagecheckerboard="true"
     inkscape:deskcolor="#d1d1d1" />
  <g
     inkscape:groupmode="layer"
     inkscape:label="Image"
     id="g1">
    <path
       style="fill:#000000"
       d="m 630.24779,1147.8246 c -8.66369,-0.6211 -19.16369,-1.9854 -23.33333,-3.0318 -4.16964,-1.0464 -10.80522,-2.3194 -14.74572,-2.8288 -3.94051,-0.5094 -11.44051,-2.4017 -16.66667,-4.2051 -20.98659,-7.2419 -32.94742,-10.9174 -40.37116,-12.406 -17.00561,-3.41 -25.22102,-5.6275 -27.13094,-7.3233 -2.88274,-2.5594 -16.88528,-9.3459 -24.66667,-11.9549 -3.66666,-1.2293 -9.96666,-3.9605 -13.99999,-6.0691 -4.03334,-2.1086 -11.62101,-5.929 -16.8615,-8.4897 -5.24049,-2.5606 -9.92028,-5.2902 -10.39953,-6.0656 -0.47925,-0.7755 -5.19157,-3.9305 -10.47183,-7.0112 -5.28026,-3.0806 -13.50047,-8.694 -18.26714,-12.4741 -4.76667,-3.78 -11.66667,-8.8911 -15.33333,-11.3578 -16.4158,-11.0437 -56.66413,-50.1056 -78.24705,-75.94059 C 294.66051,948.63075 266.94883,902.28222 249.59959,861.33328 203.70175,753.00186 202.80565,620.25777 247.23,510.31506 293.61182,395.52797 380.33969,305.77611 493.52462,255.43275 c 118.86769,-52.87099 259.41632,-52.87099 378.28402,0 110.2047,49.01779 195.30596,135.40907 242.88546,246.56722 47.6744,111.37987 48.1709,246.71073 1.3138,358.10971 -48.2704,114.7591 -135.16467,202.68652 -249.34128,252.30602 -41.3328,17.9626 -87.65451,29.9474 -135.14241,34.9653 -20.20494,2.135 -74.3756,2.3723 -101.27642,0.4436 z m 67.75217,-27.0804 c 60.72605,-2.0222 126.14418,-19.8058 177.03847,-48.1269 76.42822,-42.53 142.74997,-110.17303 184.93297,-188.61735 27.654,-51.42583 44.4574,-101.96751 53.6379,-161.33333 2.7631,-17.8672 2.9923,-23.9002 3.0235,-79.55531 0.019,-33.1221 -0.351,-60.60693 -0.8214,-61.07741 -0.4703,-0.47048 -10.0703,0.94338 -21.3333,3.14191 -11.263,2.19852 -29.4782,5.52287 -40.4782,7.38744 -38.6388,6.54953 -36.4485,5.98298 -35.6047,9.20938 0.4136,1.58161 17.1769,19.03094 37.2517,38.7763 20.0749,19.74535 37.1254,37.06943 37.8899,38.49795 1.1742,2.19397 0.3863,3.62248 -5.0734,9.19912 -8.4648,8.64602 -23.4511,19.75396 -26.6511,19.75396 -1.3904,0 -3.417,-1.44924 -4.5035,-3.22052 -1.0866,-1.77129 -10.6755,-12.68742 -21.3089,-24.25808 -10.6333,-11.57065 -25.2493,-27.97141 -32.4799,-36.44614 -16.07471,-18.84047 -15.3283,-18.0448 -16.15353,-17.21957 -0.37285,0.37286 -6.07755,22.23286 -12.67711,48.57778 -12.62296,50.38992 -13.89362,54.64252 -16.64212,55.69721 -0.93971,0.3606 -9.87999,-0.72391 -19.8673,-2.41002 -15.37026,-2.59489 -18.56305,-3.55103 -20.79167,-6.22649 -1.44812,-1.73846 -2.6529,-3.79829 -2.6773,-4.57739 -0.0834,-2.66414 16.79794,-49.48415 31.14572,-86.38182 7.66713,-19.71728 7.6909,-20.08462 1.14325,-17.6678 -22.61312,8.34679 -102.04554,30.1984 -103.71285,28.53109 -0.81645,-0.81645 -9.70495,-32.27637 -10.87393,-38.48711 -0.62342,-3.31223 -0.28693,-3.49852 10.47134,-5.79759 6.1135,-1.30648 16.21545,-3.47257 22.44878,-4.81355 17.80186,-3.82973 38.95585,-7.86297 59.98076,-11.43601 10.64391,-1.80886 19.92865,-3.46027 20.63274,-3.6698 0.7041,-0.20953 -2.5959,-2.98661 -7.33333,-6.17128 -12.2929,-8.26373 -83.95168,-80.60615 -73.38692,-74.08703 1.40835,0.86903 1.68487,0.6252 1.07963,-0.95202 -0.57969,-1.51065 3.34837,-5.88629 13.66201,-15.21872 7.9616,-7.20415 14.52576,-13.82777 14.58704,-14.71915 0.28377,-4.12827 -33.53728,-33.74666 -55.31824,-48.4443 -28.74512,-19.39701 -69.06092,-36.85526 -99.7446,-43.19314 -51.51586,-10.6409 -118.93068,-6.56529 -162.82574,9.84374 -14.01528,5.23924 -39.12848,17.10657 -49.99999,23.62765 -12.2167,7.32797 -19.31221,11.12007 -20.80711,11.12007 -2.58057,0 5.0356,-5.93402 15.93317,-12.41409 48.82708,-29.03424 96.2313,-42.11933 152.87393,-42.19814 37.64823,-0.0524 68.68123,4.8498 98.41246,15.54591 37.0746,13.33796 61.73387,27.44686 93.19088,53.31957 18.71448,15.39225 29.54925,27.69134 85.62211,97.19402 15.08034,18.69219 17.42597,21.10128 19.00652,19.52074 0.57309,-0.57309 6.71377,-23.63712 13.64596,-51.2534 6.9322,-27.61628 13.26666,-51.44964 14.0766,-52.96301 0.85321,-1.59425 2.80464,-2.7516 4.63954,-2.7516 2.5818,0 19.0803,5.68371 35.11,12.09535 5.826,2.33032 5.5896,3.60234 -7.0447,37.90465 -2.701,7.33333 -8.3902,23.23333 -12.6426,35.33333 -4.2525,12.1 -8.8034,24.24247 -10.1132,26.98326 -1.3099,2.74079 -2.076,5.28875 -1.7026,5.66213 0.3733,0.37339 3.6309,-0.18724 7.2389,-1.24585 13.7884,-4.04551 58.9754,-15.82481 67.8934,-17.69838 5.1334,-1.07845 9.7572,-2.35627 10.2753,-2.8396 1.1498,-1.07268 -9.4936,-31.03629 -18.7846,-52.88294 -26.4105,-62.10094 -77.20507,-125.67888 -137.49066,-172.0926 -64.2197,-49.44259 -124.01996,-74.10393 -204.90659,-84.5025 -32.03503,-4.11834 -75.97711,-3.83779 -107.06776,0.68357 -12.81924,1.86424 -29.91924,4.82285 -38,6.5747 -77.51495,16.8046 -149.8478,56.73052 -212.53457,117.31376 -25.05878,24.21789 -37.22454,39.28755 -68.92567,85.37779 -39.11002,56.86203 -41.68473,61.1904 -47.64613,80.09855 -4.91228,15.58058 -7.53345,30.92205 -8.40435,49.18981 -0.42071,8.82473 -1.60262,19.64496 -2.62646,24.04496 -5.69164,24.45999 -8.58155,77.48315 -6.03211,110.67531 5.31795,69.2365 26.97097,139.29096 61.19682,197.99134 29.80627,51.12041 73.52454,99.72869 122.5229,136.22739 48.64708,36.237 107.37296,63.1643 162.22185,74.3827 27.51464,5.6277 68.16587,9.6407 86.20209,8.5098 3.3,-0.207 15,-0.676 26,-1.0423 z M 639.3333,1092.4633 C 580.84922,1087.8388 522.36773,1068.598 475.13837,1038.4421 431.92748,1010.852 404.59422,987.39683 372.61024,950.46101 355.06952,930.2046 348.77222,921.72084 335.6076,900.6109 311.70943,862.28933 295.45107,825.07393 282.83223,779.80802 c -7.46368,-26.77347 -12.63004,-70.93598 -11.18147,-95.58033 0.87109,-14.81982 -0.7527,-13.66668 23.70578,-16.83473 22.74915,-2.94664 22.59472,-2.93727 22.95142,-1.393 0.43153,1.86826 -4.86889,3.07938 -20.30798,4.64029 -7.33333,0.7414 -15.88333,1.71877 -19,2.17192 l -5.66666,0.82391 0.0137,10.8486 c 0.0293,23.10706 4.68677,63.62557 9.52318,82.84861 3.25896,12.95324 14.72479,48.91059 19.20244,60.21967 21.39959,54.04844 53.78717,102.83473 97.26062,146.50628 29.06228,29.19476 65.39216,55.92496 102.06348,75.09486 68.73077,35.9288 148.07246,48.3145 232.60317,36.3107 84.49787,-11.9992 157.60898,-49.6036 220.48373,-113.40488 42.60768,-43.23556 72.52756,-85.99638 92.90526,-132.77822 17.8787,-41.04476 26.925,-71.67421 33.9495,-114.94841 1.0853,-6.68623 2.1486,-9.66667 3.4487,-9.66667 2.419,0 2.3888,0.73339 -0.8019,19.53417 -5.1139,30.13211 -14.9621,64.97206 -25.5079,90.23912 -2.1947,5.25802 -4.6606,11.36004 -5.4801,13.56004 -3.9705,10.65938 -23.6972,47.1032 -33.5458,61.97392 -45.34994,68.47534 -109.6887,126.18613 -174.69331,156.69713 -40.0338,18.7906 -87.72336,31.4062 -133.16414,35.2268 -15.39819,1.2947 -58.74856,1.6339 -72.2607,0.5655 z m 19.33333,-18.7587 c -16.37251,-0.3818 -54.97195,-4.3533 -56.55629,-5.8191 -2.69618,-2.4945 3.94839,-2.7017 21.63247,-0.6746 21.36264,2.4488 68.05168,2.835 90.08839,0.7453 7.97384,-0.7561 21.47384,-2.5524 29.99999,-3.9918 17.2614,-2.9139 22.69917,-3.2791 20.76876,-1.3946 -1.48723,1.4518 -24.1354,5.9375 -41.26666,8.1732 -14.35125,1.8729 -47.07807,3.3717 -64.66666,2.9616 z m 121.33332,-35.626 c 0,-16.0194 0.3907,-20.7453 1.71504,-20.7453 1.85489,0 16.62988,28.7662 15.40441,29.9916 -0.40829,0.4083 -3.64746,-5.5728 -7.19815,-13.2913 -3.55069,-7.7185 -6.78554,-14.0336 -7.18855,-14.0336 -0.40301,10e-5 -0.66894,8.418 -0.59096,18.7064 0.078,10.2884 -0.37201,19.0238 -1,19.4119 -0.62798,0.3881 -1.14179,-8.6297 -1.14179,-20.0397 z m -135.33332,18.3179 c -12.08005,-0.8264 -37.31186,-4.5427 -38.44951,-5.663 -2.58318,-2.544 2.59543,-2.6986 16.74014,-0.4998 22.61124,3.5149 74.12791,3.1325 104.24465,-0.7737 15.2565,-1.9787 22.97273,-2.4854 23.88962,-1.5685 1.86994,1.8699 0.18892,2.3145 -17.75824,4.6967 -30.69044,4.0736 -63.92404,5.501 -88.66666,3.8083 z m -68.63727,-9.3966 c -5.1658,-10.9362 -11.94356,-27.5302 -11.4473,-28.0265 0.74487,-0.7449 6.81714,11.2753 11.46399,22.6932 3.53351,8.6823 3.52056,12.8218 -0.0167,5.3333 z m 238.51416,-7.2041 c -4.60262,-8.9644 -13.00869,-31.7959 -11.70658,-31.7959 0.63966,0 1.16367,0.15 1.16446,0.3334 8e-4,0.1833 3.26961,8.4145 7.26402,18.2915 7.33287,18.132 8.75125,23.8309 3.2781,13.171 z m -293.51659,0.2493 c -11.06864,-8.7066 -5.18375,-25.3785 8.95815,-25.3785 13.23832,0 18.44565,14.441 8.71584,24.1709 -4.71392,4.7139 -12.53696,5.2484 -17.67399,1.2076 z m 16.20381,-4.1477 c 2.39316,-2.3932 4.10256,-5.4915 4.10256,-7.4359 0,-4.4704 -6.78052,-11.1282 -11.33333,-11.1282 -4.89108,0 -11.33333,6.6522 -11.33333,11.7027 0,2.3001 1.34521,5.3594 3.26966,7.4359 4.53692,4.8954 10.03087,4.689 15.29444,-0.5745 z m 108.53501,4.0513 c -20.85554,-1.7125 -25.76579,-2.6505 -25.76579,-4.9218 0,-1.6846 1.13946,-1.8999 6.30735,-1.1916 16.48574,2.2596 46.65399,3.7282 61.62842,3.0001 21.70791,-1.0556 45.70475,-3.546 47.44228,-4.9236 1.7484,-1.3863 5.23918,0.6774 4.14381,2.4498 -1.05126,1.7009 -16.67748,3.9251 -39.52186,5.6255 -19.95159,1.485 -35.8187,1.4737 -54.23421,-0.038 z m 110.4402,-11.199 c 0.25337,-1.2232 1.06067,-2.1923 1.794,-2.1535 1.97906,0.1045 1.61548,3.0875 -0.46067,3.7795 -1.12149,0.3738 -1.62131,-0.2357 -1.33333,-1.626 z m -160.73976,-1.5509 c -1.08714,-2.833 -0.19427,-3.7635 2.58715,-2.6962 1.19261,0.4576 1.93098,1.5443 1.64083,2.4147 -0.85088,2.5527 -3.29403,2.7153 -4.22798,0.2815 z m 261.96775,-4.8655 c -5.12016,-8.196 -20.09904,-35.14583 -20.09979,-36.16329 -4.8e-4,-0.63979 0.74952,-0.54049 1.66666,0.22067 3.47497,2.88397 47.30646,-21.8282 59.30452,-33.43585 3.10129,-3.00038 5.93403,-5.15992 6.29498,-4.79897 0.86967,0.86967 -4.93526,9.1248 -6.43728,9.15438 -0.64363,0.0127 -5.14363,2.93665 -10,6.49773 -11.90685,8.73106 -25.64262,16.54012 -36.8735,20.9633 -5.10927,2.01224 -9.46554,3.78784 -9.6806,3.94578 -0.21506,0.15793 4.08793,8.46119 9.5622,18.45165 5.47427,9.9905 9.54455,18.1646 9.04508,18.1646 -0.49948,0 -1.7515,-1.35 -2.78227,-3 z m -371.43397,-15.91 c -6.6,-5.1374 -15,-12.0359 -18.66666,-15.33001 l -6.66667,-5.98928 7.33333,5.04942 c 7.06391,4.86392 22.62642,16.45017 24,17.86797 0.36667,0.3785 2.6627,2.3285 5.1023,4.3333 2.4396,2.0049 3.6396,3.5922 2.66667,3.5273 -0.97293,-0.065 -7.16897,-4.3213 -13.76897,-9.4587 z m 144.217,2.1366 c -31.19814,-4.2633 -60.28665,-13.46065 -90.573,-28.6379 -50.09635,-25.10453 -89.95079,-60.28881 -119.98153,-105.92205 -12.47239,-18.95243 -30.82877,-55.6986 -37.63241,-75.33333 -5.9515,-17.17555 -13.34683,-47.22221 -15.58812,-63.33333 -2.22385,-15.98584 -2.19757,-70.68534 0.0429,-89.33333 2.7456,-22.85204 10.48323,-59.33333 12.58452,-59.33333 0.25778,0 -0.92484,6.15 -2.62805,13.66667 -6.87454,30.33899 -8.8375,48.84768 -8.94408,84.33333 -0.0616,20.52416 0.56545,38.20081 1.63187,45.99999 7.02385,51.36817 26.52365,101.2306 57.70612,147.55883 8.65725,12.8622 17.78618,23.73726 33.78556,40.24789 23.75931,24.51852 46.86862,41.21837 79.3792,57.36305 45.77528,22.7319 81.06065,30.97011 132.66666,30.97421 41.79305,0 70.83379,-4.7634 106.66666,-17.50809 45.66574,-16.24196 82.69941,-39.16498 114.07755,-70.61147 43.82545,-43.92091 76.97975,-100.90195 93.10988,-160.02442 4.57988,-16.78686 6.82962,-34.19282 7.71866,-59.71841 0.46713,-13.41179 1.43043,-24.74422 2.14068,-25.18317 0.8267,-0.51093 1.0335,10.66203 0.57475,31.05174 -0.7394,32.86358 -1.91949,41.56192 -8.75286,64.51651 -11.76126,39.50835 -33.00586,80.9687 -59.23823,115.60767 -11.73725,15.49864 -29.38421,34.82683 -42.18,46.19849 -46.30572,41.15206 -110.23219,69.94175 -172.07728,77.49615 -20.44169,2.497 -65.96135,2.4562 -84.48947,-0.076 z m -86.88367,-0.56 c 0.45323,-0.7333 1.38864,-1.3333 2.07869,-1.3333 0.69005,0 1.25464,0.6 1.25464,1.3333 0,0.7334 -0.93541,1.3334 -2.07869,1.3334 -1.14327,0 -1.70786,-0.6 -1.25464,-1.3334 z m -78.80826,-4.8711 c -9.42074,-7.03289 -13.83576,-11.2964 -16.01168,-15.46219 -1.68116,-3.2186 -1.67173,-3.66667 0.0772,-3.66667 1.14921,0 1.69266,0.78111 1.28413,1.84571 -0.64887,1.69092 8.90366,10.7527 20.14707,19.11205 2.18802,1.6268 3.3145,2.9768 2.50329,3 -0.81121,0.023 -4.41121,-2.1498 -8,-4.8289 z m 25.25582,-11.98944 c -12.34616,-9.27331 -22.68582,-17.48812 -22.97704,-18.25513 -0.76333,-2.01042 5.44354,2.12729 27.85754,18.57079 18.47664,13.55498 21.87164,16.54488 18.78616,16.54488 -0.67051,0 -11.32051,-7.5872 -23.66666,-16.86054 z m 402.83674,12.59244 c 15.77439,-13.1302 52.1869,-47.56322 61.84454,-58.4825 13.44283,-15.19895 31.09165,-37.47064 39.80652,-50.23327 16.26434,-23.81856 20.57234,-29.68275 21.80614,-29.68275 1.9817,0 -1.8266,6.79918 -14.273,25.48219 -15.18029,22.78672 -36.11126,48.63556 -54.16452,66.89078 -16.15916,16.33995 -49.8061,45.30815 -56.304,48.47475 -3.51321,1.7121 -3.35691,1.414 1.28432,-2.4492 z m -21.2639,-3.0652 c 4.38616,-8.18711 20.63052,-32.49956 22.47712,-33.64082 0.7398,-0.45722 -0.0993,1.52492 -1.8647,4.40476 -10.43132,17.01644 -17.08102,27.20896 -20.40842,31.28156 l -3.77559,4.6212 z m 28.16012,-20.02215 c 27.29884,-29.37768 41.69953,-43.99191 41.75976,-42.37896 0.0328,0.87938 -4.87431,6.57938 -10.90477,12.66666 -6.03045,6.08729 -15.88188,16.3494 -21.89206,22.80469 -6.01018,6.45529 -13.82617,14.24532 -17.36887,17.31117 -3.5427,3.06585 0.23998,-1.61575 8.40594,-10.40356 z m -396.18052,3.74778 c -5.77871,-3.99973 -16.45537,-12.03655 -23.08679,-17.37851 -1.12853,-0.90909 -1.67458,-2.03018 -1.21345,-2.49131 0.46114,-0.46114 4.01734,1.83807 7.90267,5.10934 8.91193,7.50344 21.13472,16.40909 23.66523,17.24273 1.06388,0.35048 1.36388,0.97357 0.66667,1.38465 -0.69721,0.41109 -4.26766,-1.32902 -7.93433,-3.8669 z m 136.66666,-6.89274 -15.33333,-0.83288 -0.34075,-115.94074 c -0.23069,-78.49107 0.0967,-115.5033 1.01356,-114.58644 0.88211,0.88211 1.64377,40.60936 2.18449,113.94075 0.45659,61.92253 1.03259,112.81853 1.27999,113.1022 1.17168,1.3435 73.11482,0.5564 84.52937,-0.9248 42.74639,-5.54694 76.66241,-17.16985 113.20918,-38.79642 33.32554,-19.72041 68.21217,-54.48815 89.87939,-89.57312 3.43461,-5.56155 6.24475,-10.81155 6.24475,-11.66667 0,-0.85511 1.2,-1.55475 2.66667,-1.55475 3.58397,0 3.37495,1.63158 -1.34263,10.48003 -10.87607,20.39952 -44.99446,59.37699 -68.65737,78.43544 -35.5199,28.60823 -85.34917,49.3119 -133.99999,55.67595 -18.57272,2.42951 -57.91202,3.51365 -81.33333,2.24145 z m -39.55222,-4.9225 c -1.11128,-2.89595 1.70992,-5.61936 3.72927,-3.6 1.70671,1.70671 0.6494,5.68962 -1.51038,5.68962 -0.77936,0 -1.77786,-0.94033 -2.21889,-2.08962 z m -161.7811,-9.91038 c 0,-0.73333 0.63541,-1.33333 1.41202,-1.33333 0.77662,0 1.04121,0.6 0.58798,1.33333 -0.45322,0.73333 -1.08863,1.33333 -1.41202,1.33333 -0.32339,0 -0.58798,-0.6 -0.58798,-1.33333 z m 458.0857,-1.72417 c 0.50071,-1.31496 1.24625,-2.05496 1.65677,-1.64445 0.41052,0.41052 8.4e-4,1.4864 -0.91038,2.39084 -1.31682,1.30702 -1.46997,1.15387 -0.74639,-0.74639 z M 582.17561,905.02612 c -1.23167,-78.60354 -0.9432,-157.02616 0.57759,-157.02616 0.69837,0 1.30527,7.18423 1.37977,16.33333 0.30547,37.51161 -0.18982,196.16791 -0.61371,196.59181 -0.25329,0.25329 -0.85793,-24.90125 -1.34365,-55.89898 z m 67.15768,55.05242 c -5.5,-0.57497 -10.52783,-0.74435 -11.17297,-0.3764 -0.64514,0.36794 -0.8945,-0.16453 -0.55414,-1.18327 0.50315,-1.506 6.45529,-1.87367 31.83964,-1.96677 17.17144,-0.063 34.8208,-0.54854 39.2208,-1.07903 33.09406,-3.98999 58.22597,-10.61469 82.66667,-21.79072 44.69359,-20.4371 77.27486,-49.34178 107.44588,-95.32132 3.23809,-4.93474 6.63744,-8.98474 7.55411,-9 0.91667,-0.0153 1.66667,0.29616 1.66667,0.69204 0,4.26513 -19.79358,32.77341 -34.26304,49.34834 -35.84776,41.06402 -93.27051,71.31952 -149.07029,78.5437 -17.91845,2.31984 -61.69195,3.5595 -75.33333,2.13343 z m -232.35318,-5.0626 c -4.10111,-2.74121 -7.21532,-5.22526 -6.92046,-5.52012 0.52604,-0.52604 15.27366,9.18659 15.27366,10.05908 0,0.91058 -1.06998,0.32917 -8.3532,-4.53896 z m 186.00968,-86.68266 c 0.22552,-54.05379 0.80148,-82.21783 1.67684,-81.99708 0.865,0.21814 1.42994,26.67916 1.60836,75.33333 0.27668,75.44763 -0.0858,88.99708 -2.38114,88.99708 -0.76477,0 -1.11463,-31.86225 -0.90406,-82.33333 z m 56.57749,74.71193 c -0.50636,-0.8193 7.15062,-1.64719 20.52146,-2.21883 27.53698,-1.17727 39.55159,-2.6916 59.55472,-7.50631 29.24339,-7.03882 53.16252,-17.27437 77.02316,-32.95997 23.23089,-15.27161 50.95252,-45.40965 67.59175,-73.48351 5.51734,-9.30889 5.79789,-3.86748 0.32319,6.26853 -16.78728,31.0805 -52.29039,65.97277 -84.37398,82.92233 -20.50268,10.83143 -49.52916,20.52363 -74.07303,24.73363 -14.42292,2.47395 -65.36386,4.19129 -66.56727,2.24413 z m 268.00447,-9.32608 c -0.40105,-0.64891 -0.24377,-1.96525 0.34951,-2.9252 0.81954,-1.32605 1.31504,-1.36293 2.06251,-0.15349 0.5411,0.87552 0.38382,2.19186 -0.34951,2.92519 -0.74595,0.74595 -1.65457,0.81357 -2.06251,0.1535 z m 23.34003,-2.00735 c -1.10356,-1.10356 -1.11719,-1.99445 -0.0502,-3.28011 2.10782,-2.53977 3.80502,-2.17271 3.80502,0.82292 0,3.26461 -1.78155,4.43047 -3.75483,2.45719 z M 421.76959,923.66661 C 398.32592,899.70545 370.96312,854.58942 357.22597,817.24654 341.67349,774.96889 337.3434,751.00623 337.36449,707.33329 c 0.0144,-29.86912 4.3668,-84.07504 6.95876,-86.66666 0.8891,-0.88899 1.06389,0.22187 0.52447,3.33333 -0.44497,2.56667 -1.71775,15.96385 -2.82839,29.77152 -3.92652,48.81503 -1.81466,91.3803 6.13047,123.56181 4.44713,18.01296 17.39504,52.51958 26.5259,70.69244 12.91042,25.69518 34.53232,57.5143 51.80123,76.23149 9.61845,10.42512 5.57399,9.91768 -4.70734,-0.59061 z m -49.38822,-7.92484 c -4.352,-5.358 -10.51598,-13.64182 -13.69773,-18.40849 -3.18176,-4.76667 -7.48721,-10.85301 -9.56767,-13.52521 -3.95242,-5.07658 -4.5292,-6.47479 -2.67095,-6.47479 0.61144,0 3.44781,3.45 6.30304,7.66667 9.30149,13.73666 22.29562,31.58465 25.7141,35.31942 1.83887,2.00902 3.00333,3.99284 2.58768,4.40849 -0.41566,0.41566 -4.31646,-3.62808 -8.66847,-8.98609 z m 278.28526,7.36506 c -6.96667,-0.26656 -13.56667,-0.81501 -14.66667,-1.21877 -5.90362,-2.16696 4.6507,-2.72139 30.66667,-1.61095 15.76666,0.67297 33.61257,0.88272 39.65757,0.46612 27.52383,-1.89683 84.44035,-21.2529 102.58679,-34.88754 2.3344,-1.75399 4.66274,-3.18908 5.17409,-3.18908 0.51135,0 3.89987,-2.13383 7.53005,-4.74186 3.63018,-2.60802 7.21663,-4.53642 7.9699,-4.28533 2.23029,0.74343 -21.29649,16.81934 -33.92229,23.17918 -21.45751,10.80854 -41.83377,18.09992 -65.24693,23.34775 -9.99302,2.23984 -17.7497,2.84556 -39.74918,3.10402 -15.03334,0.17662 -33.03334,0.10303 -40,-0.16354 z M 562.7719,920.5555 c 0.064,-1.55326 0.37992,-1.8692 0.80555,-0.80555 0.38516,0.9625 0.33779,2.1125 -0.10526,2.55555 -0.44306,0.44306 -0.75819,-0.34444 -0.70029,-1.75 z m 377.24846,1.27437 c 0.0403,-2.29359 2.30524,-4.79372 3.13157,-3.45668 0.45026,0.72853 -0.0747,2.06605 -1.16667,2.97227 -1.09192,0.90622 -1.97613,1.1242 -1.9649,0.48441 z m -252.2708,-4.53102 c -13.62303,-2.29749 -28.07597,-13.05185 -34.62843,-25.76683 -5.76205,-11.1812 -5.88213,-28.57254 -0.2788,-40.38067 3.98932,-8.40687 14.38062,-18.43029 23.43565,-22.60595 7.57001,-3.49086 9.75488,-3.86832 22.38865,-3.86791 13.04154,4.3e-4 14.45064,0.26495 20.58253,3.86371 9.34096,5.48215 16.68601,12.67287 22.08413,21.62012 4.54884,7.53959 4.66667,8.08968 4.66667,21.78676 0,12.63549 -0.3562,14.72384 -3.53386,20.71853 -10.6044,20.00536 -30.10304,28.78324 -54.71654,24.63224 z m 270.50038,0.50665 c -1.7388,-1.7388 -0.90865,-3.13889 1.86111,-3.13889 1.55166,0 2.54482,0.69889 2.25,1.58334 -0.64948,1.94845 -2.87581,2.79085 -4.11111,1.55555 z m -463.5229,-7.18103 c -15.49515,-3.24877 -31.13146,-15.7568 -36.01523,-28.80985 -8.16389,-21.81997 -2.608,-42.96011 15.12926,-57.56666 17.94209,-14.77524 46.50218,-14.23862 64.09058,1.2042 6.82734,5.99448 13.62955,20.31349 14.71542,30.97677 1.55629,15.28269 -5.12473,33.37978 -16.18063,43.82897 -9.19894,8.69413 -27.74582,13.30051 -41.7394,10.36657 z m 68.16855,-92.8488 c -0.12593,-52.19002 -0.62457,-95.92189 -1.10809,-97.18193 -0.59321,-1.54589 -0.31474,-2.10285 0.85624,-1.71253 2.10703,0.70235 2.8475,80.10402 1.39683,149.7854 -0.78454,37.68455 -0.94889,30.38002 -1.14498,-50.89094 z M 373.99998,895.66375 C 362.0801,879.06091 359.63946,875.0815 360.25113,873.2465 c 0.23104,-0.69313 5.09605,5.49284 10.81113,13.7466 13.45653,19.43402 16.11342,23.68942 14.73532,23.60072 -0.62202,-0.04 -5.93094,-6.75857 -11.7976,-14.93007 z m 576.66663,9.59084 c 0,-0.77661 0.6,-1.0412 1.33333,-0.58798 0.73334,0.45323 1.33334,1.08864 1.33334,1.41203 0,0.32338 -0.6,0.58797 -1.33334,0.58797 -0.73333,0 -1.33333,-0.63541 -1.33333,-1.41202 z m 18.66667,0.24195 c 0,-0.64354 0.84658,-1.87268 1.88129,-2.73141 2.08944,-1.73408 4.22652,0.23633 2.78537,2.56815 -1.01541,1.64296 -4.66666,1.7707 -4.66666,0.16326 z m -8.58095,-11.22076 c 0.50071,-1.31496 1.24626,-2.05496 1.65678,-1.64445 0.41051,0.41052 8.4e-4,1.48639 -0.91038,2.39084 -1.31682,1.30702 -1.46998,1.15387 -0.7464,-0.74639 z m 18.24761,-3.72161 c -3.27562,-1.23923 -3.97387,-2.56615 -1.33333,-2.53381 2.11736,0.0259 5.79338,2.3117 4.96138,3.08501 -0.34542,0.32106 -1.97805,0.073 -3.62805,-0.5512 z m -12.33333,-6.39684 c 0,-0.73334 0.6,-1.70416 1.33333,-2.15738 0.73334,-0.45323 1.33334,-0.22405 1.33334,0.50929 0,0.73333 -0.6,1.70415 -1.33334,2.15737 -0.73333,0.45323 -1.33333,0.22405 -1.33333,-0.50928 z m 22.33333,-5.59751 c -3.07019,-1.78823 -2.97823,-3.89321 0.17007,-3.89321 2.78214,0 5.96568,3.08648 4.59614,4.45602 -1.15904,1.15903 -1.9755,1.06262 -4.76621,-0.56281 z M 340.57365,864.90508 c -1.06754,-2.78198 0.26628,-4.59851 2.0597,-2.8051 0.75736,0.75736 0.777,2.02996 0.0495,3.20708 -1.02297,1.65521 -1.3432,1.59417 -2.1092,-0.40198 z m 91.92666,-12.63094 c -24.69883,-37.52295 -39.94428,-76.38836 -46.70777,-119.07268 -2.42363,-15.29554 -3.09109,-59.10297 -0.93338,-61.26068 0.79004,-0.79004 1.24916,7.05906 1.23226,21.06666 -0.0321,26.59532 1.77909,40.89799 8.5678,67.65918 4.49817,17.73188 10.72021,35.33333 12.49018,35.33333 0.34622,0 3.4658,-1.21578 6.93241,-2.70174 4.80532,-2.0598 5.90281,-2.21966 4.61903,-0.6728 -0.92613,1.11592 -4.02209,2.72949 -6.87991,3.58572 -6.04408,1.81084 -6.07416,1.44267 1.45355,17.78882 4.36377,9.47576 9.4502,18.41087 25.17824,44.22946 7.8578,12.89909 3.75866,8.79798 -5.95241,-5.95527 z m 351.09426,8.59257 c -1.11255,-2.89927 2.25609,-6.79851 4.97276,-5.75603 3.26955,1.25465 2.211,6.77821 -1.39767,7.2931 -1.55667,0.2221 -3.16546,-0.46958 -3.57509,-1.53707 z m 31.79565,-3.4413 c -0.4219,-0.68266 -0.30731,-1.47014 0.25465,-1.74995 2.05223,-1.02184 25.68841,0.6256 25.68841,1.79049 0,1.59415 -24.95686,1.55516 -25.94306,-0.0405 z m 171.27639,-9.26392 c 0,-0.64449 1.95,-4.42345 4.33333,-8.39769 2.38333,-3.97424 5.8039,-10.38539 7.60127,-14.24698 2.31559,-4.97498 3.86979,-6.82997 5.33329,-6.36527 11.192,3.55374 28.1981,10.90846 25.9751,11.23359 -1.5163,0.22179 -7.5026,-1.42415 -13.3029,-3.65764 -5.8003,-2.23348 -11.1596,-4.05898 -11.9097,-4.05666 -0.75,0.002 -4.6096,6.00232 -8.57678,13.33333 -6.41241,11.84958 -9.45361,15.76056 -9.45361,12.15732 z m 23.99999,-0.82821 c 0,-1.1 0.6,-2 1.3333,-2 0.7334,0 1.3334,0.9 1.3334,2 0,1.1 -0.6,2 -1.3334,2 -0.7333,0 -1.3333,-0.9 -1.3333,-2 z m -364.33331,-1.44191 c -0.55,-0.55139 -1,-102.30253 -1,-226.11363 v -225.1111 l 21,0.0114 c 22.22688,0.0121 46.82701,1.72088 59,4.09834 28.32637,5.53231 50.92203,13.05696 70.66666,23.53291 13.15938,6.982 37.78669,22.68806 44.37105,28.29762 8.31645,7.08523 9.46871,8.18341 7.62895,7.27089 -1.1,-0.54559 -4.1,-2.59606 -6.66667,-4.55659 -50.38226,-38.4841 -101.37234,-54.58896 -172.99999,-54.64082 l -19,-0.0138 -0.18396,158.99999 c -0.20503,177.20587 -1.30452,289.74008 -2.81604,288.22474 z M 774.8031,652.33329 c 0.0853,-121.49554 0.59774,-192.58421 1.36714,-189.66665 1.5334,5.81469 3.25435,340.28408 1.88147,365.66664 -2.60279,48.12179 -3.37657,6.20069 -3.24861,-175.99999 z m 81.4549,189.02403 c 5.71243,-6.87948 7.68434,-6.91609 2.82842,-0.0525 -2.06423,2.91768 -4.53702,5.31768 -5.49509,5.33334 -0.97372,0.0159 0.20233,-2.31303 2.66667,-5.28083 z m -59.78239,-4.70768 c -0.98486,-2.5665 1.80082,-5.98302 4.87828,-5.98302 2.98278,0 4.50843,3.75598 2.50581,6.16899 -2.02659,2.44189 -6.41813,2.33128 -7.38409,-0.18597 z m 16.19101,-0.64969 c -0.53112,-0.85936 4.62659,-1.33333 14.50929,-1.33333 8.78396,0 15.6853,0.56951 16.15737,1.33333 0.53112,0.85937 -4.62659,1.33333 -14.50928,1.33333 -8.78397,0 -15.68531,-0.56951 -16.15738,-1.33333 z m -375.68675,-9.59774 c -6.32113,-11.39729 -10.315,-19.41341 -10.30461,-20.68247 0.005,-0.57922 3.59895,5.50267 7.98712,13.51531 4.38818,8.01264 7.75328,14.79366 7.47801,15.06892 -0.27527,0.27527 -2.5975,-3.28052 -5.16052,-7.90176 z m 318.57564,-1.95781 c -1.24285,-1.24285 -0.93249,-363.18739 0.31415,-366.37303 0.94062,-2.40362 1.08004,-2.35439 1.88808,0.66667 1.29507,4.84195 1.09551,366.59524 -0.20223,366.59524 -0.61111,0 -1.51111,-0.4 -2,-0.88888 z m -424.55553,-5.41864 c -2.02338,-0.70579 -2.1955,-3.87492 -0.27493,-5.06191 1.439,-0.88935 5.27493,1.57589 5.27493,3.39004 0,1.39659 -2.9558,2.38493 -5,1.67187 z m 122.68142,-9.99359 c -1.77521,-2.20906 -8.34809,-15.30538 -8.34809,-16.6334 0,-0.56274 2.41234,3.10497 5.36076,8.15047 4.8663,8.32748 6.42946,12.76628 2.98733,8.48293 z m -149.68142,-0.76653 c 0,-1.11679 11.68623,-7.45255 14,-7.59019 0.73333,-0.0436 1.93333,-0.4429 2.66667,-0.88728 0.73333,-0.44438 3.28333,-1.22619 5.66666,-1.73736 6.46526,-1.38665 5.40643,1.55741 -1.1999,3.3363 -3.04328,0.81948 -8.81794,2.9426 -12.83257,4.71806 -8.17352,3.61472 -8.30086,3.64786 -8.30086,2.16047 z m 552.3333,0.0545 -61.66666,-0.34652 V 678.57475 c 0,-118.26398 0.77365,-147.1306 3.15189,-117.60408 0.45906,5.69945 0.97062,62.41438 1.13678,126.03319 0.26772,102.49929 0.53418,115.72844 2.34006,116.17881 1.12086,0.27953 32.7657,0.59098 70.32185,0.69211 l 68.28392,0.18386 1.87758,-3.69601 c 2.92831,-5.76437 10.25622,-29.24667 12.77787,-40.94675 1.28277,-5.9518 3.06453,-10.8452 4.07108,-11.18072 4.11917,-1.37305 -2.51105,28.20136 -12.02028,53.61706 l -2.83769,7.5844 -12.88487,-0.385 c -7.08667,-0.21175 -40.63486,-0.54093 -74.55153,-0.73152 z m 180.49342,-7.98487 c -3.8189,-4.18452 -4.5814,-5.66861 -2.9124,-5.66861 5.4033,0 10.5568,5.39459 8.9181,9.33527 -0.6352,1.52754 -2.0584,0.65865 -6.0057,-3.66666 z m -373.82743,3.33139 c 0.41956,-1.26024 8.65648,-1.75817 33.77778,-2.04189 33.36588,-0.37684 39.22291,-0.0184 39.22291,2.40062 0,0.82341 -13.62435,1.30794 -36.77778,1.30794 -28.82926,0 -36.65786,-0.36021 -36.22291,-1.66667 z m 349.00063,-1.3923 c 0,-3.05449 3.3284,-7.39047 4.6548,-6.06401 0.3247,0.32469 0.1275,2.3211 -0.4382,4.43645 -1.3133,4.91063 -4.2166,6.03126 -4.2166,1.62756 z m -464.34468,-8.69373 c -1.85117,-2.79732 -5.27706,-6.99731 -7.61308,-9.33333 -2.33601,-2.33602 -3.65702,-4.24731 -2.93556,-4.24731 1.49566,0 11.03935,11.1481 13.41197,15.66667 2.46803,4.70028 0.84528,3.51806 -2.86333,-2.08603 z M 418.72506,784.4977 c -5.12293,-10.25767 -12.024,-32.35675 -14.09861,-45.14749 -2.07,-12.76236 -2.52295,-54.68922 -0.65559,-60.68354 0.57834,-1.85648 1.02391,7.30001 1.00568,20.66666 -0.0494,36.20436 5.461,64.92393 15.95053,83.13269 2.02205,3.51007 2.85891,6.2813 2.11998,7.02023 -0.73892,0.73893 -2.44503,-1.2303 -4.32199,-4.98855 z m 57.38017,4.05785 c 0.064,-1.55326 0.37993,-1.8692 0.80556,-0.80556 0.38516,0.9625 0.33779,2.1125 -0.10526,2.55556 -0.44306,0.44305 -0.75819,-0.34445 -0.7003,-1.75 z m 19.53781,-0.44312 c -0.79896,-3.05525 1.29194,-5.51493 3.85274,-4.53226 2.5102,0.96326 2.32342,5.2814 -0.27153,6.27717 -2.88173,1.10583 -2.82901,1.13151 -3.58121,-1.74491 z m 169.69025,1.35994 c -7.17731,-1.9992 2.01322,-2.80543 31.77572,-2.7875 29.88232,0.018 36.22428,0.5089 36.22428,2.80396 0,1.37604 -63.05558,1.36077 -68,-0.0165 z m 149.33333,-1.6493 c 0,-2.39261 2.26269,-2.48974 57.99999,-2.48974 50.66667,0 58,0.25287 58,2 0,1.70431 -3.49897,1.99349 -23.66666,1.95602 -13.01667,-0.0242 -39.11667,0.1962 -58,0.48975 -32.82176,0.51022 -34.33333,0.42411 -34.33333,-1.95603 z m -507.99398,1.04942 c -0.008,-1.4865 4.91075,-8.61796 9.06597,-13.14458 l 3.3096,-3.60543 -8.1761,-5.06124 c -7.65878,-4.74101 -9.93166,-7.06125 -6.91712,-7.06125 1.83183,0 18.04499,10.62657 18.04499,11.8272 0,0.54827 -3.4473,4.86144 -7.66067,9.58483 -4.21337,4.72338 -7.66337,8.0806 -7.66667,7.46047 z m 233.42441,-18.01634 c -9.0211,-7.42139 -20.99276,-20.10569 -25.99032,-27.53747 -8.27291,-12.30247 -11.6591,-22.51451 -12.37446,-37.31868 -0.35435,-7.33333 -0.11408,-14.71512 0.53393,-16.40396 0.81118,-2.11406 1.20434,1.20884 1.26209,10.66667 0.14328,23.46654 7.57133,38.62978 29.69133,60.61033 14.2868,14.19673 17.27904,18.54019 6.87743,9.98311 z m 123.32259,2.61689 c -1.42526,-2.30612 3.68884,-2.80638 28.68937,-2.80638 21.53269,0 25.22428,0.2927 25.22428,2 0,1.71091 -3.84311,2 -26.58798,2 -14.62338,0 -26.91993,-0.53713 -27.32567,-1.19362 z m 64.58032,-0.13971 c 2.62065,-1.6936 6.66666,-1.6936 6.66666,0 0,0.73333 -1.95,1.32414 -4.33333,1.31291 -3.2883,-0.0155 -3.85101,-0.33212 -2.33333,-1.31291 z m 86.66666,-101.38482 c 0,-57.30384 0.50493,-99.9485 1.18344,-99.9485 1.69437,0 3.04571,58.29194 2.34913,101.33332 C 817.87282,693.5 817.93766,723.05 818.34329,739 l 0.7375,28.99999 h 59.12624 c 51.23115,0 59.12625,0.2627 59.12625,1.96732 0,1.70595 -8.14814,1.96481 -61.33333,1.9485 l -61.33333,-0.0188 z m 221.99998,97.25501 c -8.0667,-1.30031 -14.8167,-2.40305 -15,-2.45053 -0.1833,-0.0475 -0.3333,-0.68633 -0.3333,-1.41966 0,-1.87556 5.7703,-1.66125 19.4361,0.72187 12.4746,2.17539 13.7951,2.6694 11.8083,4.41755 -0.6844,0.60224 -7.8444,0.0311 -15.9111,-1.26923 z m -596.39204,-0.75604 c 0.0693,-1.34612 -2.03096,-8.56036 -4.66731,-16.03165 -6.05053,-17.14699 -7.86373,-27.12516 -7.83319,-43.10664 0.0524,-27.3979 10.44878,-53.69931 35.11008,-88.82338 14.07815,-20.05092 25.42647,-39.96294 29.15298,-51.15247 4.9011,-14.71643 6.16134,-29.73832 3.59207,-42.81712 -8.60298,-43.79333 -47.35729,-66.18717 -92.96255,-53.7176 -30.31875,8.28987 -51.48626,23.73397 -64.90257,47.3538 -8.47188,14.91501 -10.99932,38.66811 -5.89896,55.43887 2.33254,7.66975 2.35449,8.39998 0.30816,10.25189 -1.2118,1.09666 -13.39821,5.87702 -27.08092,10.62301 l -24.87765,8.62909 -2.44069,-10.21431 c -1.92133,-8.04078 -2.44069,-15.60502 -2.44069,-35.54763 0,-22.30665 0.36797,-26.68738 3.07993,-36.66666 5.08831,-18.72362 14.49066,-33.82752 33.51194,-53.83343 22.74348,-23.92079 52.0731,-40.01353 89.40812,-49.05693 11.64657,-2.82107 53.06346,-2.38017 64,0.6813 12.18961,3.41224 28.84975,11.4601 40.74031,19.68004 35.33972,24.43033 55.488,73.03378 48.02305,115.84538 -4.17952,23.96965 -13.38645,42.80375 -38.78988,79.3503 -21.16633,30.45085 -28.59385,48.80718 -28.59385,70.66666 0,18.24941 5.50901,34.56243 16.69599,49.43936 l 4.9334,6.56063 -4.54881,-4.31473 -4.5488,-4.31474 -15.28904,3.88603 c -13.11344,3.33306 -33.99767,9.73679 -41.54811,12.7399 -1.64688,0.65503 -2.22491,0.23528 -2.13301,-1.54897 z m 68.88867,-4.11415 c -1.65849,-2.11474 -1.61133,-2.1619 0.50341,-0.50341 2.22099,1.74183 2.9273,2.83674 1.82992,2.83674 -0.27687,0 -1.32687,-1.05 -2.33333,-2.33333 z m 179.76187,-6.51931 c -2.27331,-2.2733 1.74985,-3.14736 14.48688,-3.14736 11.48561,0 13.92131,0.34993 13.92131,2 0,1.64875 -2.41975,2 -13.77778,2 -7.57777,0 -14.16146,-0.38369 -14.63041,-0.85264 z m 158.74152,-6.73403 c -1.28334,-0.33487 -2.33334,-1.16486 -2.33334,-1.84443 0,-0.72623 14.01575,-1.23556 34,-1.23556 21.77778,0 34,0.4793 34,1.33333 0,0.84362 -10.40643,1.3736 -28.33333,1.44297 -15.58334,0.0603 -29.83333,0.2903 -31.66667,0.51109 -1.83333,0.2208 -4.38333,0.12747 -5.66666,-0.2074 z m 207.46358,-9.18366 c -2.0883,-2.72486 -5.762,-7.20561 -8.1637,-9.95722 l -4.3667,-5.00293 -6.9666,3.84109 c -7.7293,4.2616 -10.1042,4.86665 -7.6915,1.95956 0.8809,-1.06141 4.2544,-2.94292 7.4966,-4.18114 3.2422,-1.23822 5.895,-2.65003 5.895,-3.13735 0,-0.48732 -3,-4.25195 -6.6667,-8.36586 -6.7534,-7.57713 -7.6419,-9.05248 -5.4516,-9.05248 1.1895,0 22.1384,23.49107 24.8011,27.81073 0.7422,1.2041 2.4735,3.85799 3.8473,5.89754 3.8119,5.65927 1.5776,5.813 -2.7332,0.18806 z M 669.33329,585.97446 v -158.0255 l 29.35608,0.35884 29.35608,0.35884 -0.0336,155.10798 c -0.0224,103.51274 -0.48913,155.95909 -1.40299,157.66665 -1.28325,2.39778 -3.12721,2.55869 -29.32245,2.55869 h -27.95309 z m 5.33334,154.77085 c 0,-0.32339 -0.6,-0.9588 -1.33334,-1.41202 -0.73333,-0.45323 -1.33333,-0.18864 -1.33333,0.58798 0,0.77661 0.6,1.41202 1.33333,1.41202 0.73334,0 1.33334,-0.26459 1.33334,-0.58798 z m -375.9103,-3.07869 c 0.96224,-1.28333 5.58364,-6.29669 10.26978,-11.1408 l 8.52025,-8.80748 -7.46266,-5.92012 -7.46266,-5.92013 -10.21278,0.97551 c -5.61702,0.53654 -11.75676,1.35642 -13.64386,1.82196 -2.31014,0.5699 -2.99548,0.4054 -2.09775,-0.50351 1.16095,-1.17542 19.94017,-4.17209 26.14518,-4.17209 2.68084,0 17.18815,11.6993 17.18815,13.86125 0,1.75109 -20.13043,22.13875 -21.85942,22.13875 -0.62357,0 -0.34648,-1.05 0.61577,-2.33334 z m 550.03435,-1.1575 c -0.48298,-1.25862 -0.29881,-2.86775 0.40927,-3.57583 1.92673,-1.92673 5.72929,0.0516 5.21656,2.71399 -0.60087,3.12009 -4.52838,3.72176 -5.62583,0.86184 z m -324.69902,-5.99135 c -4.06586,-9.19153 -5.69258,-18.10583 -5.81235,-31.85114 -0.22981,-26.37278 5.72478,-38.8389 29.97448,-62.75246 13.79232,-13.60114 17.73834,-18.36662 20.97706,-25.33334 5.57951,-12.0019 6.5205,-20.30214 7.54822,-66.58086 0.4967,-22.36667 1.12459,-40.91667 1.39532,-41.22222 1.1627,-1.31226 0.34598,84.03102 -0.87936,91.88888 -2.47872,15.89562 -8.65144,25.87791 -27.82315,44.9945 -24.5954,24.52471 -28.92155,34.49739 -27.84958,64.19909 0.41448,11.48415 1.30419,17.51116 3.45118,23.37884 3.43334,9.38324 2.74109,11.69497 -0.98182,3.27871 z m 351.02273,-0.60744 c -1.11128,-2.89594 1.70992,-5.61935 3.72927,-3.6 1.70671,1.70672 0.6494,5.68963 -1.51038,5.68963 -0.77936,0 -1.77786,-0.94033 -2.21889,-2.08963 z m -283.09401,-5.57704 c 0.0484,-2.37036 2.32879,-4.59235 3.22494,-3.14235 0.50161,0.81163 0.5412,2.07568 0.088,2.80902 -0.96118,1.55522 -3.34276,1.79485 -3.31292,0.33333 z m -47.35375,-7 c 0.45323,-0.73333 1.08864,-1.33333 1.41203,-1.33333 0.32338,0 0.58797,0.6 0.58797,1.33333 0,0.73333 -0.63541,1.33333 -1.41202,1.33333 -0.77661,0 -1.0412,-0.6 -0.58798,-1.33333 z m 36.66757,-2.42641 c 10e-4,-1.3023 42.57008,-21.57359 45.30357,-21.57359 0.74921,0 1.36219,0.50192 1.36219,1.11538 0,1.17765 -21.74729,12.21795 -24.06703,12.21795 -0.74522,0 -4.47948,1.58332 -8.29834,3.51849 -7.77043,3.93757 -14.30175,6.09412 -14.30039,4.72177 z m 265.33242,-0.16157 c 0,-2.24993 2.2832,-2.7469 8.62589,-1.87753 4.10204,0.56224 5.63176,1.23724 4.47133,1.97298 -2.41923,1.53387 -13.09722,1.45605 -13.09722,-0.0955 z m -277.03871,-13.9615 c 5.76375,-4.05918 56.35419,-28.80531 58.75438,-28.73949 4.04386,0.11089 -7.10985,6.66438 -30.93174,18.1743 -27.7232,13.39491 -36.65854,16.78796 -27.82264,10.56519 z m 280.70537,-2.55957 c -1.59825,-3.90353 -1.24979,-40.34074 0.3703,-38.72065 0.85044,0.85045 1.22981,8.91832 1,21.26666 -0.20367,10.94301 -0.8203,18.7973 -1.3703,17.45399 z m 11.02042,-21.22428 c 0.0112,-11.18333 0.60204,-21.23333 1.31292,-22.33333 0.863,-1.33541 1.29928,5.42127 1.31291,20.33333 0.0128,14.01361 -0.47628,22.33333 -1.31291,22.33333 -0.8315,0 -1.32565,-7.65305 -1.31292,-20.33333 z m 15.97958,-0.75464 c 0,-10.95162 -0.375,-21.78703 -0.83333,-24.07869 -0.65983,-3.29915 -0.38222,-4.16667 1.33333,-4.16667 1.91718,0 2.16667,2.67771 2.16667,23.25464 0,14.06485 -0.52691,23.58029 -1.33334,24.07869 -0.86615,0.53531 -1.33333,-6.15282 -1.33333,-19.08797 z m -322.66665,13.92113 c 0,-1.17182 61.32785,-34.16649 63.50593,-34.16649 0.27174,0 0.49407,0.54299 0.49407,1.20664 0,1.54299 -6.06867,5.07418 -34,19.78366 -20.024,10.54525 -30,14.92677 -30,13.17619 z M 890.7438,667.19153 c -0.0593,-21.70989 0.70683,-28.86819 2.74541,-25.6516 2.05893,3.24872 0.54768,46.46003 -1.62488,46.46003 -0.58503,0 -1.08927,-9.36379 -1.12053,-20.80843 z m -329.4105,0.80843 c 6.06404,-3.31992 8.24428,-3.31992 4,0 -1.83333,1.43405 -4.53333,2.59556 -6,2.58113 -1.98985,-0.0196 -1.48223,-0.67469 2,-2.58113 z m -143.2411,-6.00273 c 5.74886,-23.55337 28.17218,-65.42352 44.55398,-83.19383 8.92925,-9.6861 7.67478,-5.058 -2.2104,8.1548 -16.08837,21.50418 -27.74704,41.86059 -36.48753,63.70843 -5.9805,14.94892 -7.41814,17.73056 -5.85605,11.3306 z m -114.83738,-6.70634 c 2.93812,-2.22228 4.74516,-2.51434 4.74516,-0.76691 0,1.28244 -3.24266,2.83587 -5.77571,2.76691 -0.85669,-0.0233 -0.39294,-0.92332 1.03055,-2 z m -32.58817,-8.00908 c 0,-0.95135 42.09598,-28.51389 45.0427,-29.49191 3.92365,-1.30227 -5.08015,5.77097 -20.37603,16.00709 -17.77025,11.89198 -24.66667,15.66213 -24.66667,13.48482 z m 799.99995,-24.61518 c 0,-8.88889 0.5253,-14.66667 1.3333,-14.66667 0.8081,0 1.3334,5.77778 1.3334,14.66667 0,8.88889 -0.5253,14.66667 -1.3334,14.66667 -0.808,0 -1.3333,-5.77778 -1.3333,-14.66667 z m -484.82125,10.07788 c -1.42024,-3.7011 0.0963,-6.74455 3.36089,-6.74455 4.20589,0 6.58841,3.70092 4.21981,6.55491 -2.18894,2.63751 -6.59903,2.74783 -7.5807,0.18964 z m 7.48795,-3.49997 c 0,-2.0337 -3.9985,-3.11275 -5.6,-1.51124 -0.78142,0.78141 -1.04999,2.38695 -0.59683,3.56787 0.65408,1.70449 1.37775,1.85073 3.51038,0.70938 1.47755,-0.79076 2.68645,-2.03546 2.68645,-2.76601 z m -206.56138,2.66697 c -0.18595,-3.68883 2.70282,-17.60297 5.93324,-28.57821 9.07054,-30.81685 24.31444,-60.22993 45.93563,-88.6327 8.13581,-10.68765 11.62016,-14.21743 12.83512,-13.00247 0.40966,0.40966 -2.2118,4.54516 -5.82547,9.19 -27.79756,35.72978 -45.52462,70.99145 -55.58366,110.56396 -1.75427,6.90133 -3.23696,11.60807 -3.29486,10.45942 z m 22.03786,-6.57821 c 2.14153,-8.66469 10.76053,-29.9153 16.76432,-41.33333 6.22084,-11.83082 32.99257,-53.05056 40.26827,-62 1.78855,-2.2 3.65101,-3.60468 4.1388,-3.12151 0.48779,0.48317 -5.66513,10.68317 -13.67316,22.66666 -20.46087,30.61837 -31.39659,49.22797 -38.77666,65.98727 -3.504,7.95716 -7.08517,15.96757 -7.95817,17.80091 l -1.58726,3.33333 z m 642.36352,-8.60282 c -1.0943,-2.85152 0.5581,-4.73052 4.16,-4.73052 3.6911,0 5.0103,1.55308 3.8616,4.54635 -1.0183,2.65386 -7.021,2.79167 -8.0216,0.18417 z M 594.09333,601.48437 c -1.02486,-1.65827 2.81105,-4.57354 4.57964,-3.48049 1.04058,0.64312 1.01064,1.43737 -0.10485,2.78145 -1.78771,2.15406 -3.41812,2.40876 -4.47479,0.69904 z m 24.24945,-18.15107 c -1.59893,-15.06614 -1.25091,-184.96935 0.37777,-184.42646 0.9311,0.31037 1.47913,22.37755 1.66667,67.11111 0.33557,80.04581 -0.558,131.32158 -2.04444,117.31535 z m -265.35073,-7 c -0.95468,-2.17613 -1.57798,-9.62883 -1.53329,-18.33333 0.0661,-12.88418 0.52492,-15.75788 3.77484,-23.64534 2.03894,-4.94843 6.09859,-11.53184 9.04419,-14.66667 2.93955,-3.1284 4.37949,-4.18799 3.19986,-2.35466 -4.8932,7.60483 -10.65638,19.7601 -12.32739,26 -2.06242,7.70149 -2.3891,26.02264 -0.57669,32.34213 1.51467,5.28136 0.61163,5.65699 -1.58152,0.65787 z m 486.80153,-11.52154 c -16.60634,-14.91098 -29.84716,-28.53604 -28.77409,-29.60911 0.47862,-0.47862 10.34503,8.49225 21.92534,19.93528 11.58032,11.44303 20.66225,20.81823 20.18208,20.83377 -0.48016,0.0155 -6.48016,-5.00643 -13.33333,-11.15994 z m -460.40685,7.18821 c 2.77799,-9.99435 30.17345,-59.57144 39.23339,-71 6.62766,-8.36038 4.78754,-2.71267 -3.47538,10.66667 -15.56274,25.19922 -20.74449,34.09153 -26.10852,44.8044 -2.88363,5.75909 -6.4429,12.35909 -7.90949,14.66667 -2.32203,3.65357 -2.54682,3.76496 -1.74,0.86226 z M 865.908,568.3333 c -2.79391,-3.48333 -7.66619,-9.15763 -10.82728,-12.60955 -3.16109,-3.45191 -5.74744,-6.93732 -5.74744,-7.74535 0,-2.45796 2.2739,-0.29568 11.6724,11.09944 12.53112,15.19323 12.81832,15.58879 11.31814,15.58879 -0.73478,0 -3.6219,-2.85 -6.41582,-6.33333 z m 17.22649,-6 c -7.66835,-8.34838 -22.11547,-27.66667 -20.69042,-27.66667 0.67684,0 2.0538,1.13454 3.05992,2.52119 1.49698,2.06318 15.07079,18.44762 23.59348,28.47881 4.22041,4.96742 -1.03885,2.02747 -5.96298,-3.33333 z m 14.61285,-6 c -4.75628,-4.95 -12.24417,-13.5 -16.63977,-19 l -7.99199,-10 9.48446,10 c 14.93879,15.75081 25.75955,28 24.7348,28 -0.51685,0 -4.83122,-4.05 -9.5875,-9 z m -301.25442,-6 c 0.44218,-1.65 0.81216,-36.45 0.82217,-77.33333 0.0119,-48.65452 0.47881,-74.33333 1.35154,-74.33333 0.86658,0 1.33333,18.59542 1.33333,53.11959 0,61.6486 -1.19152,101.54707 -3.03258,101.54707 -0.70314,0 -0.91665,-1.35 -0.47446,-3 z m 228.34343,-24.43518 c -5.77331,-6.2418 -10.0607,-11.77235 -9.52753,-12.29011 0.94986,-0.92241 21.93327,20.75897 21.99372,22.72529 0.0755,2.45608 -2.66211,0.16447 -12.46619,-10.43518 z m -34.32841,-2.89815 c -0.35421,-23.0651 -0.0137,-44.60534 0.71654,-45.33564 0.42651,-0.42651 0.77547,11.92453 0.77547,27.44675 0,15.52222 -0.3,28.22222 -0.66666,28.22222 -0.36667,0 -0.73808,-4.65 -0.82535,-10.33333 z m 79.9886,1.33333 c -1.65849,-2.11474 -1.61133,-2.1619 0.50341,-0.5034 1.28333,1.00645 2.33333,2.05645 2.33333,2.33333 0,1.09738 -1.09491,0.39107 -2.83674,-1.82993 z m -33.31569,-14.58179 c -8.24233,-7.85629 -14.80318,-15.88523 -12.20572,-14.93691 3.04798,1.11278 22.8329,21.1466 21.6226,21.89461 -0.70645,0.43661 -4.94405,-2.69436 -9.41688,-6.9577 z m -452.88248,2.01352 c -2.17417,-2.17417 0.42493,-5.09839 4.53153,-5.09839 3.40497,0 4.16952,2.46722 1.57008,5.06666 -2.0241,2.0241 -4.09846,2.03488 -6.10161,0.0317 z m 192.35986,-34.51535 c -0.86772,-8.64044 -0.40626,-12.10881 1.37418,-10.32837 1.47148,1.47148 2.30041,18.0489 0.94442,18.88695 -0.86408,0.53403 -1.72437,-2.64152 -2.3186,-8.55858 z m 250.67505,-5.85744 c -5.13333,-3.22944 -10.08333,-6.53748 -11,-7.35122 -0.91666,-0.81373 -1.66666,-1.14834 -1.66666,-0.74356 0,0.40478 -2.28197,-0.70458 -5.07105,-2.46525 -6.48263,-4.0923 -23.9194,-12.88776 -28.26228,-14.25606 -12.38,-3.90053 -38.76526,-14.49196 -36.19667,-14.52988 2.94747,-0.0435 24.3552,6.51555 30.19667,9.25187 1.46666,0.68703 6.26666,2.72662 10.66666,4.53241 10.69864,4.39079 30.25675,15.20001 32.33333,17.86972 0.91667,1.17849 1.66667,1.72051 1.66667,1.20448 0,-1.13454 9.86426,4.93532 15.1023,9.29302 5.84465,4.86236 2.4991,3.65422 -7.76897,-2.80553 z m 16.4966,-4.39227 c -1.6585,-2.11474 -1.61134,-2.1619 0.5034,-0.5034 2.221,1.74182 2.92731,2.83674 1.82993,2.83674 -0.27687,0 -1.32687,-1.05 -2.33333,-2.33334 z m 93.45567,-0.55247 c -1.52682,-2.97714 -1.49106,-3.0129 0.81261,-0.81261 1.32535,1.26588 2.04405,2.66726 1.59711,3.1142 -0.44693,0.44693 -1.53131,-0.58878 -2.40972,-2.30159 z M 827.33328,455.85564 c -7.33333,-5.07941 -21.73333,-13.48736 -31.99999,-18.68434 -20.09377,-10.17145 -19.89791,-11.38849 0.27653,-1.7183 11.46192,5.49403 43.27268,25.66021 45.07349,28.57398 1.16731,1.88874 1.2258,1.92455 -13.35003,-8.17134 z m -271.33331,3.11877 c 0,-0.56407 3.73905,-3.11407 8.30901,-5.66667 10.32729,-5.76844 10.35765,-5.78125 10.35765,-4.36954 0,1.05419 -16.23116,11.06177 -17.94093,11.06177 -0.39916,0 -0.72573,-0.4615 -0.72573,-1.02556 z m 387.20525,-13.68886 c -5.79623,-6.64491 -10.73861,-12.65253 -10.98305,-13.35028 -1.02429,-2.92374 2.05676,-0.81101 5.77777,3.96193 2.2,2.82193 6.93538,8.51411 10.52306,12.64928 3.58769,4.13516 6.23006,7.81148 5.87195,8.1696 -0.35811,0.35811 -5.39349,-4.78563 -11.18973,-11.43053 z m -20.3804,4.73536 c -2.44223,-3.40075 -4.07692,-6.54667 -3.63264,-6.99094 0.44427,-0.44428 1.00475,-0.55777 1.24551,-0.25222 5.02964,6.38331 7.71452,10.76544 7.32035,11.94793 -0.27104,0.81312 -2.49099,-1.30403 -4.93322,-4.70477 z m -72.2379,-2.90756 c -10.61508,-9.10238 -29.36997,-21.16488 -44.58697,-28.67682 -16.33068,-8.06171 -19.97018,-11.10291 -5.34056,-4.46263 19.93995,9.05061 38.33455,20.79066 52.00723,33.19276 8.76508,7.95056 7.20777,7.91064 -2.0797,-0.0533 z m -298.8178,-2.1604 c 2.7378,-3.31147 13.77918,-9.99215 18.23085,-11.03073 5.69441,-1.32851 3.21119,0.64407 -9.33334,7.41405 -5.86666,3.16609 -9.87055,4.7936 -8.89751,3.61668 z m -16.53856,-8.78673 c 1.36074,-2.20173 33.48795,-20.16624 36.06472,-20.16624 0.38758,0 0.70469,0.56236 0.70469,1.2497 0,0.68733 -7.73134,5.48733 -17.18076,10.66666 -16.11276,8.83159 -21.29777,11.01529 -19.58865,8.24988 z m 418.04378,-15.83291 c -17.4127,-20.54032 -15.94383,-20.01422 -25.76705,-9.22892 -7.5375,8.27573 -11.50734,10.88458 -11.50734,7.56225 0,-0.73333 0.50237,-1.18333 1.11639,-1 0.61402,0.18334 5.27588,-4.09659 10.3597,-9.51094 l 9.24329,-9.84427 13.86639,16.26035 c 7.62651,8.9432 15.09815,17.12312 16.60365,18.17761 2.29431,1.607 2.37304,1.91725 0.48653,1.91725 -1.2379,0 -7.7186,-6.45 -14.40156,-14.33333 z m -50.49924,11.73371 c -1.4113,-0.87223 -1.2023,-1.43475 0.9638,-2.594 3.13942,-1.68017 5.14171,0.13621 2.53498,2.29961 -0.9701,0.80511 -2.46843,0.93118 -3.49878,0.29439 z m 97.5683,-13.0346 C 981.33176,394.48384 950.37148,363.12916 925.30371,343.0368 899.0127,321.96397 862.56345,300.82302 829.4782,287.45698 780.3957,267.62824 722.62484,257.32878 670.66663,259.14386 c -91.28046,3.18875 -163.14647,29.00518 -238.66666,85.73624 -6.96666,5.23338 -22.73937,19.25358 -35.05045,31.15599 -12.31109,11.90241 -22.67023,21.35431 -23.02032,21.00422 -1.06985,-1.06985 17.99947,-21.64561 31.23676,-33.70441 18.83874,-17.16157 30.51817,-26.18654 54.41845,-42.05042 66.58333,-44.19486 138.05607,-65.56211 219.74888,-65.6954 46.83734,-0.0764 89.15131,6.67736 130.66666,20.85584 27.92841,9.53821 64.18327,26.43347 62.51498,29.13283 -0.57815,0.93546 -0.32496,1.12784 0.67278,0.5112 3.82808,-2.36588 49.87961,28.89088 70.81223,48.06271 3.3,3.02241 8.1761,7.37176 10.83576,9.66523 12.96893,11.18324 48.6017,52.88838 53.9827,63.18208 3.3467,6.40234 0.7982,4.00643 -8.475,-7.96755 z m -228.34345,7.63422 c -1.1,-0.71087 -1.4,-1.2925 -0.66666,-1.2925 0.73333,0 2.23333,0.58163 3.33333,1.2925 1.1,0.71088 1.4,1.2925 0.66667,1.2925 -0.73334,0 -2.23334,-0.58162 -3.33334,-1.2925 z m 113.33333,-8.66666 c -1.35943,-1.63802 -1.26831,-2 0.50341,-2 1.18979,0 2.16326,0.9 2.16326,2 0,1.1 -0.22654,1.99999 -0.50341,1.99999 -0.27687,0 -1.25034,-0.89999 -2.16326,-1.99999 z m 82.22989,-8.33334 c -18.06146,-22.52358 -61.64478,-61.20793 -81.73053,-72.54363 -3.94131,-2.22434 -7.16603,-4.62239 -7.16603,-5.329 0,-0.70661 -0.6,-0.91392 -1.33333,-0.4607 -0.73333,0.45323 -1.33333,0.33511 -1.33333,-0.26249 0,-0.5976 -1.8,-1.8833 -4,-2.85711 -2.2,-0.97382 -4,-2.37756 -4,-3.11943 0,-3.02078 29.46039,15.68056 48,30.4702 20.21616,16.12709 49.97677,46.68474 57.47453,59.01382 3.97417,6.53501 1.85709,4.77594 -5.91131,-4.91166 z m -187.84132,-3.05089 c -4.91963,-2.07008 -14.66043,-5.41468 -21.64624,-7.43243 -6.9858,-2.01776 -12.44253,-3.92758 -12.12606,-4.24405 1.42074,-1.42074 43.38374,12.66007 43.38374,14.55754 0,0.64341 -0.15,1.10524 -0.33334,1.02629 -0.18333,-0.079 -4.35848,-1.83726 -9.2781,-3.90735 z m 117.61143,-0.13042 c -14.57651,-12.72196 -29.45633,-23.46944 -40,-28.8914 -5.82314,-2.99449 -10.25117,-6.86446 -7.89229,-6.89764 2.1849,-0.0307 29.86074,18.30023 39.22562,25.98091 10.01832,8.2166 16.00116,13.87844 14.66667,13.87975 -0.73333,7.3e-4 -3.43333,-1.8315 -6,-4.07162 z m -28.48217,-1.81869 c -0.4675,-1.21828 -0.002,-2 1.19068,-2 1.07699,0 1.95816,0.9 1.95816,2 0,1.1 -0.53581,2 -1.19068,2 -0.65488,0 -1.53605,-0.9 -1.95816,-2 z m 25.6818,-20.43257 c -7.77354,-6.36209 -19.36035,-15.08061 -25.74847,-19.37451 -6.38813,-4.29389 -11.32576,-8.0961 -10.97251,-8.44934 1.08052,-1.08052 23.33082,14.17934 35.43011,24.29893 10.15815,8.49606 17.48874,15.47171 15.96456,15.19158 -0.29699,-0.0546 -6.90015,-5.30458 -14.67369,-11.66666 z m -154.86629,9.54953 c 0.91667,-0.36988 2.41667,-0.36988 3.33334,0 0.91666,0.36989 0.16666,0.67252 -1.66667,0.67252 -1.83333,0 -2.58333,-0.30263 -1.66667,-0.67252 z m 110.21232,-0.9515 c -1.11407,-2.90322 -0.33434,-3.68295 2.14848,-2.14848 1.52479,0.94237 1.59862,1.55693 0.33843,2.81713 -1.2602,1.26019 -1.80272,1.11432 -2.48691,-0.66865 z m -369.84445,-6.87371 c 5.07271,-6.11224 44.50821,-27.32539 69.29881,-37.27722 37.59982,-15.0939 63.32789,-20.43076 113.33333,-23.50911 52.37223,-3.22405 98.159,4.57768 143.33332,24.42294 20.72289,9.10365 27.21946,12.31487 27.27868,13.48367 0.0301,0.59328 -0.39535,0.80633 -0.94535,0.47346 -1.99326,-1.20639 -21.87925,-10.21882 -22.54788,-10.21882 -0.37755,0 -7.38374,-2.627 -15.56929,-5.83779 -33.57495,-13.16978 -68.32208,-19.49554 -107.08815,-19.49554 -70.9625,0 -121.0965,12.8272 -182.52075,46.69944 -13.26565,7.3153 -24.60261,13.30056 -25.19323,13.30056 -0.59062,0 -0.3114,-0.91872 0.62051,-2.04159 z m 429.96546,-10.05398 c -8.06667,-6.5953 -20.96667,-16.26938 -28.66667,-21.49796 -16.78888,-11.40027 -15.29821,-10.21937 -14.2382,-11.27938 1.8756,-1.8756 32.86725,21.07937 52.2382,38.69191 10.60921,9.64616 6.56194,7.08139 -9.33333,-5.91457 z m -85.33333,2.79334 c -35.67581,-17.59307 -75.59798,-29.3478 -112.66666,-33.1737 -10.93952,-1.12909 -11.05535,-1.17564 -3.33334,-1.3398 8.89197,-0.18903 34.17582,3.76455 49.82189,7.79055 9.78584,2.51805 19.7511,5.74709 36.84478,11.93881 9.2498,3.35049 40.65113,18.47884 38.66666,18.62861 -0.73333,0.0553 -4.93333,-1.67467 -9.33333,-3.84447 z M 463.2393,363.8961 c -1.37902,-1.5238 -6.01732,-4.93704 -10.30733,-7.58499 -7.59767,-4.68955 -7.7284,-4.86845 -5.03914,-6.89612 6.32037,-4.76549 24.23642,-15.06351 24.95562,-14.34431 0.63857,0.63857 -7.06469,5.97109 -21.60911,14.95876 -1.87405,1.15806 -1.04698,2.22907 5.50542,7.12925 4.24093,3.17155 8.45934,6.05372 9.37426,6.4048 0.96381,0.36985 4.53033,-3.61015 8.47951,-9.46259 6.67891,-9.8977 9.64281,-13.05804 6.65957,-7.10092 -3.26137,6.51251 -12.65269,19.66666 -14.04089,19.66666 -0.80883,0 -2.59889,-1.24674 -3.97791,-2.77054 z m 148.51066,-14.14027 c 0.9625,-0.38516 2.1125,-0.3378 2.55556,0.10526 0.44305,0.44306 -0.34445,0.75819 -1.75,0.70029 -1.55326,-0.064 -1.8692,-0.37992 -0.80556,-0.80555 z m 6.58334,-1.30556 c 0.91666,-0.36988 2.41666,-0.36988 3.33333,0 0.91667,0.36988 0.16667,0.67252 -1.66667,0.67252 -1.83333,0 -2.58333,-0.30264 -1.66666,-0.67252 z m 7.35871,-1.37428 c 1.29729,-0.33806 3.09729,-0.31582 3.99999,0.0494 0.90271,0.36523 -0.1587,0.64182 -2.3587,0.61465 -2.2,-0.0272 -2.93858,-0.326 -1.64129,-0.66406 z m 9.30795,-1.32844 c 1.28334,-0.33537 3.38334,-0.33537 4.66667,0 1.28333,0.33537 0.23333,0.60976 -2.33333,0.60976 -2.56667,0 -3.61667,-0.27439 -2.33334,-0.60976 z m 12.66667,-1.35521 c 1.65,-0.31781 4.35,-0.31781 6,0 1.65,0.3178 0.3,0.57782 -3,0.57782 -3.3,0 -4.65,-0.26002 -3,-0.57782 z m 23.38878,-1.38236 c 4.9805,-0.25724 12.7805,-0.25533 17.33333,0.004 4.55284,0.25957 0.47789,0.47004 -9.05545,0.46771 -9.53333,-0.002 -13.25838,-0.21471 -8.27788,-0.47195 z m 168.35991,-2.01 c 1.95399,-6.31403 12.90523,-28.26505 13.42714,-26.9138 0.59322,1.53587 -12.28313,29.9138 -13.57324,29.9138 -0.43027,0 -0.36452,-1.35 0.1461,-3 z m -323.58301,-6.66667 c -3.0802,-4.58333 -7.42685,-10.73333 -9.65924,-13.66666 -3.12376,-4.10459 -3.34443,-4.71896 -0.95784,-2.66667 3.19037,2.74348 13.22044,16.33628 15.98776,21.66667 2.9599,5.70135 0.2097,2.97028 -5.37068,-5.33334 z m 292.16764,-3.66666 c 0,-0.73334 0.76072,-1.33334 1.69049,-1.33334 0.92977,0 3.97643,-1.55333 6.77036,-3.45186 7.04795,-4.78921 7.74741,-3.01492 0.79645,2.02033 -5.72369,4.14622 -9.2573,5.2016 -9.2573,2.76487 z M 530.21807,319.99998 c -4.95673,-4.4 -8.46803,-8 -7.80289,-8 0.66514,0 4.01989,2.47394 7.45499,5.49763 3.4351,3.0237 6.46565,5.2737 6.73455,5 0.26889,-0.27369 1.07409,-2.59763 1.78933,-5.1643 1.21226,-4.35025 1.28818,-4.147 1.11984,2.99773 -0.0993,4.21542 -0.20376,7.66542 -0.23208,7.66667 -0.0283,0.001 -4.107,-3.59773 -9.06374,-7.99773 z m 40.59328,-11 c -7.22551,-19.25236 -7.35004,-19.66666 -5.9114,-19.66666 1.16602,0 10.16483,23.47245 11.88469,30.99999 1.69704,7.42764 -0.48845,3.28103 -5.97329,-11.33333 z m 221.1886,13.99365 c 0,-0.6555 7.30994,-4.60729 16.24432,-8.78175 8.93437,-4.17446 15.68437,-8.06416 15,-8.64377 -2.1202,-1.79565 -19.04937,-7.18866 -20.76778,-6.61586 -0.89439,0.29813 -2.37184,2.60583 -3.28324,5.12822 -1.25445,3.47183 -1.68174,3.87833 -1.75853,1.67298 -0.1466,-4.21037 2.22364,-9.75347 4.17061,-9.75347 1.69619,0 17.08613,5.40561 24.39462,8.56845 l 4,1.73104 -16.66667,8.51335 c -16.89319,8.62906 -21.33333,10.33174 -21.33333,8.18081 z m -16.80535,-6.99365 c 0.48244,-4.22623 5.17326,-23.30001 6.85099,-27.8575 0.37609,-1.02163 0.98419,-1.55711 1.35134,-1.18997 0.86214,0.86214 -3.97057,21.44278 -6.66433,28.3808 l -2.07073,5.33334 z m -161.8613,-1.03713 c 0,-4.1207 52.48406,-8.94876 83.99999,-7.72724 21.0842,0.8172 47.34551,3.66544 48.99382,5.31375 2.05691,2.05691 -2.13073,2.09712 -19.45014,0.18675 -31.91981,-3.52081 -64.61589,-2.68259 -106.54367,2.73142 -4.59745,0.59366 -7,0.42044 -7,-0.50468 z m -2.40954,-16.42367 c 1.18798,-3.60772 32.99636,-6.79024 69.74287,-6.97797 36.5621,-0.18678 67.00534,2.63343 63.73451,5.90426 -0.7054,0.7054 -5.27011,0.62859 -11.13178,-0.18732 -5.46484,-0.76067 -23.43607,-1.72336 -39.93607,-2.13932 -28.41661,-0.71636 -47.21439,0.36434 -76.74728,4.41227 -5.05383,0.69271 -6.15855,0.49528 -5.66225,-1.01192 z m -23.25713,-7.70586 c -1.48008,-6.66036 -1.30142,-10.33476 0.41885,-8.61449 0.78037,0.78037 1.23037,4.05037 1,7.26667 l -0.41885,5.84782 z m 21.66667,-8.02213 c 0,-1.54895 2.79414,-2.18674 22,-5.02174 21.32213,-3.14738 76.90734,-3.15523 99.18042,-0.014 8.34923,1.17751 15.49923,2.45974 15.88888,2.84939 2.02629,2.02629 -2.50232,2.0212 -19.27317,-0.0216 -22.37036,-2.72493 -80.95066,-1.97143 -101.79613,1.30937 -15.12527,2.38051 -16,2.42964 -16,0.89862 z"
       id="path1" />
  </g>
</svg>
